<?xml version="1.0" encoding="UTF-8" standalone="no"?>
<!DOCTYPE svg PUBLIC "-//W3C//DTD SVG 1.1//EN"
 "http://www.w3.org/Graphics/SVG/1.1/DTD/svg11.dtd">
<!-- Generated by graphviz version 2.43.0 (0)
 -->
<!-- Title: example Pages: 1 -->
<svg width="831pt" height="1132pt"
 viewBox="0.00 0.00 830.80 1132.40" xmlns="http://www.w3.org/2000/svg" xmlns:xlink="http://www.w3.org/1999/xlink">
<g id="graph0" class="graph" transform="scale(1 1) rotate(0) translate(4 1128.4)">
<title>example</title>
<polygon fill="white" stroke="transparent" points="-4,4 -4,-1128.4 826.8,-1128.4 826.8,4 -4,4"/>
<!-- init -->
<g id="node1" class="node">
<title>init</title>
<polygon fill="orange" stroke="black" points="66.8,-1124.4 39.8,-1106.4 66.8,-1088.4 93.8,-1106.4 66.8,-1124.4"/>
<text text-anchor="middle" x="66.8" y="-1102.7" font-family="Times,serif" font-size="14.00">f</text>
</g>
<!-- H_q0 -->
<g id="node2" class="node">
<title>H_q0</title>
<polygon fill="none" stroke="black" points="56.8,-1037.4 2.8,-1037.4 2.8,-1001.4 56.8,-1001.4 56.8,-1037.4"/>
<text text-anchor="middle" x="29.8" y="-1015.7" font-family="Times,serif" font-size="14.00">H</text>
</g>
<!-- init&#45;&gt;H_q0 -->
<g id="edge1" class="edge">
<title>init&#45;&gt;H_q0</title>
<path fill="none" stroke="blue" d="M61.02,-1092.12C55.79,-1080.09 47.92,-1062.01 41.39,-1047.02"/>
<polygon fill="blue" stroke="blue" points="44.54,-1045.48 37.34,-1037.7 38.12,-1048.27 44.54,-1045.48"/>
</g>
<!-- H_q1 -->
<g id="node3" class="node">
<title>H_q1</title>
<polygon fill="none" stroke="black" points="128.8,-1037.4 74.8,-1037.4 74.8,-1001.4 128.8,-1001.4 128.8,-1037.4"/>
<text text-anchor="middle" x="101.8" y="-1015.7" font-family="Times,serif" font-size="14.00">H</text>
</g>
<!-- init&#45;&gt;H_q1 -->
<g id="edge2" class="edge">
<title>init&#45;&gt;H_q1</title>
<path fill="none" stroke="blue" d="M72.43,-1091.74C77.36,-1079.77 84.67,-1062.02 90.76,-1047.21"/>
<polygon fill="blue" stroke="blue" points="94.17,-1048.12 94.74,-1037.55 87.7,-1045.46 94.17,-1048.12"/>
</g>
<!-- CCX -->
<g id="node5" class="node">
<title>CCX</title>
<polygon fill="none" stroke="black" points="128.8,-964.4 74.8,-964.4 74.8,-928.4 128.8,-928.4 128.8,-964.4"/>
<text text-anchor="middle" x="101.8" y="-942.7" font-family="Times,serif" font-size="14.00">CCX</text>
</g>
<!-- H_q0&#45;&gt;CCX -->
<g id="edge3" class="edge">
<title>H_q0&#45;&gt;CCX</title>
<path fill="none" stroke="blue" d="M47.23,-1001.21C56.25,-992.32 67.42,-981.31 77.29,-971.57"/>
<polygon fill="blue" stroke="blue" points="79.87,-973.94 84.54,-964.43 74.96,-968.96 79.87,-973.94"/>
</g>
<!-- H_q1&#45;&gt;CCX -->
<g id="edge4" class="edge">
<title>H_q1&#45;&gt;CCX</title>
<path fill="none" stroke="blue" d="M101.8,-1001.21C101.8,-993.19 101.8,-983.45 101.8,-974.47"/>
<polygon fill="blue" stroke="blue" points="105.3,-974.43 101.8,-964.43 98.3,-974.43 105.3,-974.43"/>
</g>
<!-- q_alloc -->
<g id="node4" class="node">
<title>q_alloc</title>
<ellipse fill="none" stroke="black" cx="164.8" cy="-1019.4" rx="18" ry="18"/>
</g>
<!-- q_alloc&#45;&gt;CCX -->
<g id="edge5" class="edge">
<title>q_alloc&#45;&gt;CCX</title>
<path fill="none" stroke="blue" d="M153.25,-1005.38C145.07,-996.16 133.85,-983.52 123.98,-972.39"/>
<polygon fill="blue" stroke="blue" points="126.34,-969.78 117.09,-964.62 121.11,-974.43 126.34,-969.78"/>
</g>
<!-- H_q -->
<g id="node6" class="node">
<title>H_q</title>
<polygon fill="none" stroke="black" points="64.8,-891.4 10.8,-891.4 10.8,-855.4 64.8,-855.4 64.8,-891.4"/>
<text text-anchor="middle" x="37.8" y="-869.7" font-family="Times,serif" font-size="14.00">H</text>
</g>
<!-- CCX&#45;&gt;H_q -->
<g id="edge8" class="edge">
<title>CCX&#45;&gt;H_q</title>
<path fill="none" stroke="blue" d="M86.31,-928.21C78.37,-919.4 68.56,-908.53 59.85,-898.86"/>
<polygon fill="blue" stroke="blue" points="62.45,-896.51 53.15,-891.43 57.25,-901.2 62.45,-896.51"/>
</g>
<!-- CCZ -->
<g id="node7" class="node">
<title>CCZ</title>
<polygon fill="none" stroke="black" points="128.8,-783.4 74.8,-783.4 74.8,-747.4 128.8,-747.4 128.8,-783.4"/>
<text text-anchor="middle" x="101.8" y="-761.7" font-family="Times,serif" font-size="14.00">CCZ</text>
</g>
<!-- CCX&#45;&gt;CCZ -->
<g id="edge6" class="edge">
<title>CCX&#45;&gt;CCZ</title>
<path fill="none" stroke="blue" d="M97.62,-928.24C94.5,-897.1 94.22,-831.06 96.79,-793.68"/>
<polygon fill="blue" stroke="blue" points="100.29,-793.77 97.63,-783.51 93.32,-793.19 100.29,-793.77"/>
</g>
<!-- CCX&#45;&gt;CCZ -->
<g id="edge7" class="edge">
<title>CCX&#45;&gt;CCZ</title>
<path fill="none" stroke="blue" d="M105.98,-928.24C109.1,-897.1 109.38,-831.06 106.82,-793.68"/>
<polygon fill="blue" stroke="blue" points="110.29,-793.19 105.98,-783.51 103.31,-793.77 110.29,-793.19"/>
</g>
<!-- H_q&#45;&gt;CCZ -->
<g id="edge9" class="edge">
<title>H_q&#45;&gt;CCZ</title>
<path fill="none" stroke="blue" d="M47.31,-855.31C55.45,-840.83 67.6,-819.57 78.8,-801.4 80.65,-798.4 82.63,-795.28 84.61,-792.2"/>
<polygon fill="blue" stroke="blue" points="87.61,-794.01 90.14,-783.72 81.75,-790.18 87.61,-794.01"/>
</g>
<!-- M_q0 -->
<g id="node8" class="node">
<title>M_q0</title>
<polygon fill="none" stroke="black" points="65.8,-710.4 11.8,-710.4 11.8,-674.4 65.8,-674.4 65.8,-710.4"/>
<text text-anchor="middle" x="38.8" y="-688.7" font-family="Times,serif" font-size="14.00">M</text>
</g>
<!-- CCZ&#45;&gt;M_q0 -->
<g id="edge10" class="edge">
<title>CCZ&#45;&gt;M_q0</title>
<path fill="none" stroke="blue" d="M86.55,-747.21C78.81,-738.49 69.27,-727.74 60.76,-718.15"/>
<polygon fill="blue" stroke="blue" points="63.17,-715.59 53.91,-710.43 57.93,-720.23 63.17,-715.59"/>
</g>
<!-- M_q1 -->
<g id="node9" class="node">
<title>M_q1</title>
<polygon fill="none" stroke="black" points="137.8,-637.4 83.8,-637.4 83.8,-601.4 137.8,-601.4 137.8,-637.4"/>
<text text-anchor="middle" x="110.8" y="-615.7" font-family="Times,serif" font-size="14.00">M</text>
</g>
<!-- CCZ&#45;&gt;M_q1 -->
<g id="edge11" class="edge">
<title>CCZ&#45;&gt;M_q1</title>
<path fill="none" stroke="blue" d="M102.87,-747.32C104.41,-722.74 107.26,-677.15 109.09,-647.83"/>
<polygon fill="blue" stroke="blue" points="112.61,-647.66 109.74,-637.46 105.62,-647.22 112.61,-647.66"/>
</g>
<!-- q_free -->
<g id="node10" class="node">
<title>q_free</title>
<ellipse fill="none" stroke="black" cx="147.8" cy="-692.4" rx="18" ry="18"/>
</g>
<!-- CCZ&#45;&gt;q_free -->
<g id="edge12" class="edge">
<title>CCZ&#45;&gt;q_free</title>
<path fill="none" stroke="blue" d="M112.94,-747.21C118.88,-738.04 126.28,-726.62 132.74,-716.66"/>
<polygon fill="blue" stroke="blue" points="135.82,-718.33 138.32,-708.03 129.95,-714.52 135.82,-718.33"/>
</g>
<!-- copy -->
<g id="node11" class="node">
<title>copy</title>
<polygon fill="none" stroke="black" points="65.8,-637.4 11.8,-637.4 11.8,-601.4 65.8,-601.4 65.8,-637.4"/>
<text text-anchor="middle" x="38.8" y="-615.7" font-family="Times,serif" font-size="14.00">copy</text>
</g>
<!-- M_q0&#45;&gt;copy -->
<g id="edge13" class="edge">
<title>M_q0&#45;&gt;copy</title>
<path fill="none" stroke="black" d="M38.8,-674.21C38.8,-666.19 38.8,-656.45 38.8,-647.47"/>
<polygon fill="black" stroke="black" points="42.3,-647.43 38.8,-637.43 35.3,-647.43 42.3,-647.43"/>
</g>
<!-- decision -->
<g id="node13" class="node">
<title>decision</title>
<polygon fill="none" stroke="green" stroke-width="3" points="93.36,-424.4 73.58,-442.4 34.03,-442.4 14.25,-424.4 34.03,-406.4 73.58,-406.4 93.36,-424.4"/>
<text text-anchor="middle" x="53.8" y="-420.7" font-family="Times,serif" font-size="14.00">?c=0</text>
</g>
<!-- M_q0&#45;&gt;decision -->
<g id="edge18" class="edge">
<title>M_q0&#45;&gt;decision</title>
<path fill="none" stroke="blue" d="M23.56,-674.28C15.7,-664.28 6.92,-650.99 2.8,-637.4 -1.83,-622.09 0.86,-617.28 2.8,-601.4 10.64,-537.31 16.51,-521.36 37.8,-460.4 38.77,-457.62 39.89,-454.76 41.06,-451.93"/>
<polygon fill="blue" stroke="blue" points="44.35,-453.15 45.18,-442.59 37.94,-450.32 44.35,-453.15"/>
</g>
<!-- xor -->
<g id="node12" class="node">
<title>xor</title>
<polygon fill="none" stroke="black" points="118.8,-529.4 64.8,-529.4 64.8,-493.4 118.8,-493.4 118.8,-529.4"/>
<text text-anchor="middle" x="91.8" y="-507.7" font-family="Times,serif" font-size="14.00">⊕</text>
</g>
<!-- M_q1&#45;&gt;xor -->
<g id="edge15" class="edge">
<title>M_q1&#45;&gt;xor</title>
<path fill="none" stroke="black" d="M107.75,-601.37C104.78,-584.78 100.21,-559.28 96.72,-539.83"/>
<polygon fill="black" stroke="black" points="100.12,-538.97 94.91,-529.74 93.23,-540.2 100.12,-538.97"/>
</g>
<!-- M_q1&#45;&gt;decision -->
<g id="edge19" class="edge">
<title>M_q1&#45;&gt;decision</title>
<path fill="none" stroke="blue" d="M118.77,-601.02C128.98,-576.11 143.57,-529.29 127.8,-493.4 119.16,-473.72 101.7,-457.24 85.91,-445.43"/>
<polygon fill="blue" stroke="blue" points="87.55,-442.3 77.38,-439.36 83.5,-448 87.55,-442.3"/>
</g>
<!-- copy&#45;&gt;xor -->
<g id="edge14" class="edge">
<title>copy&#45;&gt;xor</title>
<path fill="none" stroke="black" d="M47.32,-601.37C55.77,-584.47 68.84,-558.34 78.63,-538.76"/>
<polygon fill="black" stroke="black" points="81.79,-540.25 83.13,-529.74 75.53,-537.12 81.79,-540.25"/>
</g>
<!-- copy&#45;&gt;decision -->
<g id="edge16" class="edge">
<title>copy&#45;&gt;decision</title>
<path fill="none" stroke="black" d="M37.64,-601.35C36.25,-577.23 34.62,-531.8 38.8,-493.4 40.3,-479.69 43.44,-464.7 46.46,-452.29"/>
<polygon fill="black" stroke="black" points="49.86,-453.11 48.93,-442.56 43.08,-451.39 49.86,-453.11"/>
<text text-anchor="middle" x="47.3" y="-507.7" font-family="Times,serif" font-size="14.00">c0</text>
</g>
<!-- xor&#45;&gt;decision -->
<g id="edge17" class="edge">
<title>xor&#45;&gt;decision</title>
<path fill="none" stroke="black" d="M84.11,-493.2C78.81,-481.33 71.65,-465.33 65.63,-451.85"/>
<polygon fill="black" stroke="black" points="68.76,-450.28 61.48,-442.58 62.37,-453.13 68.76,-450.28"/>
<text text-anchor="middle" x="79.8" y="-464.2" font-family="Times,serif" font-size="14.00">c</text>
</g>
<!-- c=0 -->
<g id="node14" class="node">
<title>c=0</title>
<ellipse fill="green" stroke="green" cx="41.8" cy="-294.2" rx="7.2" ry="7.2"/>
</g>
<!-- decision&#45;&gt;c=0 -->
<g id="edge20" class="edge">
<title>decision&#45;&gt;c=0</title>
<path fill="none" stroke="black" d="M30.75,-408.93C24,-403.41 17.46,-396.47 13.8,-388.4 1.49,-361.27 19.42,-327.3 31.78,-308.78"/>
<polygon fill="black" stroke="black" points="34.77,-310.61 37.69,-300.43 29.06,-306.57 34.77,-310.61"/>
<text text-anchor="middle" x="22.3" y="-377.2" font-family="Times,serif" font-size="14.00">c0</text>
</g>
<!-- decision&#45;&gt;c=0 -->
<g id="edge21" class="edge">
<title>decision&#45;&gt;c=0</title>
<path fill="none" stroke="blue" d="M47.45,-406.38C42.44,-381.55 38.19,-335.74 38.65,-311.4"/>
<polygon fill="blue" stroke="blue" points="42.16,-311.3 39.31,-301.1 35.18,-310.86 42.16,-311.3"/>
</g>
<!-- decision&#45;&gt;c=0 -->
<g id="edge22" class="edge">
<title>decision&#45;&gt;c=0</title>
<path fill="none" stroke="blue" d="M56.97,-406.38C57.34,-381.21 52.89,-334.46 47.78,-310.39"/>
<polygon fill="blue" stroke="blue" points="51.13,-309.39 45.23,-300.59 44.36,-311.15 51.13,-309.39"/>
</g>
<!-- c=1 -->
<g id="node15" class="node">
<title>c=1</title>
<ellipse fill="green" stroke="green" cx="97.8" cy="-337.4" rx="7.2" ry="7.2"/>
</g>
<!-- decision&#45;&gt;c=1 -->
<g id="edge23" class="edge">
<title>decision&#45;&gt;c=1</title>
<path fill="none" stroke="blue" d="M56.1,-406.17C59.04,-400.57 62.69,-394.29 65.8,-388.4 72.5,-375.73 79.24,-360.74 85.49,-350.5"/>
<polygon fill="blue" stroke="blue" points="88.54,-352.26 91.56,-342.11 82.86,-348.16 88.54,-352.26"/>
</g>
<!-- decision&#45;&gt;c=1 -->
<g id="edge24" class="edge">
<title>decision&#45;&gt;c=1</title>
<path fill="none" stroke="blue" d="M73.21,-406.17C77.04,-400.57 80.69,-394.29 83.8,-388.4 89.77,-377.1 95.78,-363.97 98.87,-354"/>
<polygon fill="blue" stroke="blue" points="102.33,-354.56 100.99,-344.05 95.49,-353.1 102.33,-354.56"/>
</g>
<!-- join -->
<g id="node18" class="node">
<title>join</title>
<ellipse fill="black" stroke="black" cx="75.8" cy="-91" rx="1.8" ry="1.8"/>
</g>
<!-- c=0&#45;&gt;join -->
<g id="edge28" class="edge">
<title>c=0&#45;&gt;join</title>
<path fill="none" stroke="black" d="M37.95,-287.82C31.37,-260.33 52.04,-135.57 68.3,-100.94"/>
<polygon fill="black" stroke="black" points="71.36,-102.67 74.24,-92.47 65.63,-98.64 71.36,-102.67"/>
</g>
<!-- c=0&#45;&gt;join -->
<g id="edge29" class="edge">
<title>c=0&#45;&gt;join</title>
<path fill="none" stroke="blue" d="M42.86,-286.96C47.69,-258.38 67.72,-139.86 73.95,-103"/>
<polygon fill="blue" stroke="blue" points="77.41,-103.48 75.63,-93.03 70.51,-102.31 77.41,-103.48"/>
</g>
<!-- c=0&#45;&gt;join -->
<g id="edge30" class="edge">
<title>c=0&#45;&gt;join</title>
<path fill="none" stroke="blue" d="M46.99,-288.62C62.74,-263.12 84.44,-138.5 80.42,-102.04"/>
<polygon fill="blue" stroke="blue" points="83.71,-100.85 77.21,-92.48 77.08,-103.07 83.71,-100.85"/>
</g>
<!-- T -->
<g id="node16" class="node">
<title>T</title>
<polygon fill="none" stroke="black" points="179.8,-269 125.8,-269 125.8,-233 179.8,-233 179.8,-269"/>
<text text-anchor="middle" x="152.8" y="-247.3" font-family="Times,serif" font-size="14.00">T</text>
</g>
<!-- c=1&#45;&gt;T -->
<g id="edge25" class="edge">
<title>c=1&#45;&gt;T</title>
<path fill="none" stroke="blue" d="M101.41,-330.86C108.34,-320.22 123.92,-296.33 136.11,-277.61"/>
<polygon fill="blue" stroke="blue" points="139.08,-279.47 141.61,-269.18 133.22,-275.65 139.08,-279.47"/>
</g>
<!-- f -->
<g id="node17" class="node">
<title>f</title>
<ellipse fill="none" stroke="black" cx="114.8" cy="-164" rx="27" ry="18"/>
<text text-anchor="middle" x="114.8" y="-160.3" font-family="Times,serif" font-size="14.00" fill="#8b4500">(f)</text>
</g>
<!-- c=1&#45;&gt;f -->
<g id="edge26" class="edge">
<title>c=1&#45;&gt;f</title>
<path fill="none" stroke="blue" d="M98.45,-329.89C100.67,-307.49 108.08,-232.76 112.12,-192.03"/>
<polygon fill="blue" stroke="blue" points="115.61,-192.28 113.12,-181.98 108.65,-191.59 115.61,-192.28"/>
</g>
<!-- T&#45;&gt;f -->
<g id="edge27" class="edge">
<title>T&#45;&gt;f</title>
<path fill="none" stroke="blue" d="M145.11,-232.8C139.74,-220.78 132.47,-204.51 126.39,-190.92"/>
<polygon fill="blue" stroke="blue" points="129.5,-189.3 122.22,-181.6 123.11,-192.15 129.5,-189.3"/>
</g>
<!-- f&#45;&gt;join -->
<g id="edge31" class="edge">
<title>f&#45;&gt;join</title>
<path fill="none" stroke="black" d="M97.2,-150.31C85.53,-136.51 73.86,-114.74 71.57,-102.07"/>
<polygon fill="black" stroke="black" points="75.02,-102.75 74.4,-92.17 68.29,-100.82 75.02,-102.75"/>
</g>
<!-- f&#45;&gt;join -->
<g id="edge32" class="edge">
<title>f&#45;&gt;join</title>
<path fill="none" stroke="blue" d="M105.95,-146.89C98.3,-132.95 87.48,-113.25 81.1,-101.63"/>
<polygon fill="blue" stroke="blue" points="84.16,-99.94 76.27,-92.86 78.02,-103.31 84.16,-99.94"/>
</g>
<!-- f&#45;&gt;join -->
<g id="edge33" class="edge">
<title>f&#45;&gt;join</title>
<path fill="none" stroke="blue" d="M117.12,-145.81C111.7,-129.88 97.78,-107.17 86.03,-97.12"/>
<polygon fill="blue" stroke="blue" points="87.7,-94.05 77.28,-92.15 84.25,-100.13 87.7,-94.05"/>
</g>
<!-- fin -->
<g id="node19" class="node">
<title>fin</title>
<polygon fill="orangered" stroke="black" points="75.8,-36 48.8,-18 75.8,0 102.8,-18 75.8,-36"/>
</g>
<!-- join&#45;&gt;fin -->
<g id="edge34" class="edge">
<title>join&#45;&gt;fin</title>
<path fill="none" stroke="black" d="M74.17,-89.8C63.78,-87.15 60.21,-59.25 63.47,-39.28"/>
<polygon fill="black" stroke="black" points="66.89,-40.02 65.89,-29.48 60.1,-38.35 66.89,-40.02"/>
</g>
<!-- join&#45;&gt;fin -->
<g id="edge35" class="edge">
<title>join&#45;&gt;fin</title>
<path fill="none" stroke="blue" d="M75.8,-89C75.8,-84.31 75.8,-64.04 75.8,-46.51"/>
<polygon fill="blue" stroke="blue" points="79.3,-46.12 75.8,-36.12 72.3,-46.12 79.3,-46.12"/>
</g>
<!-- join&#45;&gt;fin -->
<g id="edge36" class="edge">
<title>join&#45;&gt;fin</title>
<path fill="none" stroke="blue" d="M77.44,-89.8C87.83,-87.15 91.4,-59.25 88.13,-39.28"/>
<polygon fill="blue" stroke="blue" points="91.51,-38.35 85.71,-29.48 84.71,-40.02 91.51,-38.35"/>
</g>
<!-- winit -->
<g id="node20" class="node">
<title>winit</title>
<polygon fill="orange" stroke="black" points="246.8,-1124.4 219.8,-1106.4 246.8,-1088.4 273.8,-1106.4 246.8,-1124.4"/>
<text text-anchor="middle" x="246.8" y="-1102.7" font-family="Times,serif" font-size="14.00">w</text>
</g>
<!-- wdecide -->
<g id="node21" class="node">
<title>wdecide</title>
<polygon fill="none" stroke="green" stroke-width="3" points="286.36,-1019.4 266.58,-1037.4 227.03,-1037.4 207.25,-1019.4 227.03,-1001.4 266.58,-1001.4 286.36,-1019.4"/>
<text text-anchor="middle" x="246.8" y="-1015.7" font-family="Times,serif" font-size="14.00">?c=0</text>
</g>
<!-- winit&#45;&gt;wdecide -->
<g id="edge37" class="edge">
<title>winit&#45;&gt;wdecide</title>
<path fill="none" stroke="black" d="M246.8,-1088.2C246.8,-1076.56 246.8,-1060.95 246.8,-1047.64"/>
<polygon fill="black" stroke="black" points="250.3,-1047.58 246.8,-1037.58 243.3,-1047.58 250.3,-1047.58"/>
<text text-anchor="middle" x="250.8" y="-1059.2" font-family="Times,serif" font-size="14.00">c</text>
</g>
<!-- wc=0 -->
<g id="node22" class="node">
<title>wc=0</title>
<ellipse fill="green" stroke="green" cx="202.8" cy="-946.4" rx="7.2" ry="7.2"/>
</g>
<!-- wdecide&#45;&gt;wc=0 -->
<g id="edge38" class="edge">
<title>wdecide&#45;&gt;wc=0</title>
<path fill="none" stroke="grey" d="M236.15,-1001.21C228.6,-989.02 218.59,-972.87 211.51,-961.45"/>
<polygon fill="grey" stroke="grey" points="214.43,-959.51 206.18,-952.85 208.48,-963.2 214.43,-959.51"/>
</g>
<!-- wc=1 -->
<g id="node23" class="node">
<title>wc=1</title>
<ellipse fill="green" stroke="green" cx="250.8" cy="-946.4" rx="7.2" ry="7.2"/>
</g>
<!-- wdecide&#45;&gt;wc=1 -->
<g id="edge39" class="edge">
<title>wdecide&#45;&gt;wc=1</title>
<path fill="none" stroke="grey" d="M247.77,-1001.21C248.41,-989.88 249.24,-975.12 249.87,-963.93"/>
<polygon fill="grey" stroke="grey" points="253.37,-964.03 250.44,-953.85 246.38,-963.63 253.37,-964.03"/>
</g>
<!-- write0 -->
<g id="node24" class="node">
<title>write0</title>
<polygon fill="none" stroke="black" points="202.8,-885.4 160.8,-885.4 160.8,-861.4 202.8,-861.4 214.8,-873.4 202.8,-885.4"/>
<text text-anchor="middle" x="187.8" y="-869.7" font-family="Times,serif" font-size="14.00">&#39;0\n&#39;</text>
</g>
<!-- wc=0&#45;&gt;write0 -->
<g id="edge40" class="edge">
<title>wc=0&#45;&gt;write0</title>
<path fill="none" stroke="grey" d="M201.42,-938.85C199.63,-930.37 196.4,-915.07 193.53,-901.5"/>
<polygon fill="grey" stroke="grey" points="196.93,-900.67 191.44,-891.61 190.08,-902.12 196.93,-900.67"/>
</g>
<!-- write1 -->
<g id="node25" class="node">
<title>write1</title>
<polygon fill="none" stroke="black" points="274.8,-885.4 232.8,-885.4 232.8,-861.4 274.8,-861.4 286.8,-873.4 274.8,-885.4"/>
<text text-anchor="middle" x="259.8" y="-869.7" font-family="Times,serif" font-size="14.00">&#39;1\n&#39;</text>
</g>
<!-- wc=1&#45;&gt;write1 -->
<g id="edge41" class="edge">
<title>wc=1&#45;&gt;write1</title>
<path fill="none" stroke="grey" d="M251.63,-938.85C252.7,-930.45 254.61,-915.37 256.32,-901.9"/>
<polygon fill="grey" stroke="grey" points="259.84,-901.97 257.62,-891.61 252.89,-901.09 259.84,-901.97"/>
</g>
<!-- wjoin -->
<g id="node26" class="node">
<title>wjoin</title>
<ellipse fill="black" stroke="black" cx="231.8" cy="-765.4" rx="1.8" ry="1.8"/>
</g>
<!-- write0&#45;&gt;wjoin -->
<g id="edge42" class="edge">
<title>write0&#45;&gt;wjoin</title>
<path fill="none" stroke="grey" d="M194.87,-855.37C204.1,-833.14 219.96,-794.93 227.53,-776.68"/>
<polygon fill="grey" stroke="grey" points="230.77,-778.02 231.37,-767.44 224.31,-775.33 230.77,-778.02"/>
</g>
<!-- write1&#45;&gt;wjoin -->
<g id="edge43" class="edge">
<title>write1&#45;&gt;wjoin</title>
<path fill="none" stroke="grey" d="M255.31,-855.37C249.49,-833.36 239.54,-795.67 234.66,-777.22"/>
<polygon fill="grey" stroke="grey" points="238.02,-776.21 232.08,-767.44 231.25,-778 238.02,-776.21"/>
</g>
<!-- wfin -->
<g id="node27" class="node">
<title>wfin</title>
<polygon fill="orangered" stroke="black" points="231.8,-710.4 204.8,-692.4 231.8,-674.4 258.8,-692.4 231.8,-710.4"/>
</g>
<!-- wjoin&#45;&gt;wfin -->
<g id="edge44" class="edge">
<title>wjoin&#45;&gt;wfin</title>
<path fill="none" stroke="grey" d="M231.8,-763.4C231.8,-758.71 231.8,-738.44 231.8,-720.91"/>
<polygon fill="grey" stroke="grey" points="235.3,-720.52 231.8,-710.52 228.3,-720.52 235.3,-720.52"/>
</g>
<!-- minit -->
<g id="node28" class="node">
<title>minit</title>
<polygon fill="orange" stroke="black" points="347.8,-1124.4 300.21,-1106.4 347.8,-1088.4 395.4,-1106.4 347.8,-1124.4"/>
<text text-anchor="middle" x="347.8" y="-1102.7" font-family="Times,serif" font-size="14.00">main</text>
</g>
<!-- mdecide0 -->
<g id="node29" class="node">
<title>mdecide0</title>
<polygon fill="none" stroke="green" stroke-width="3" points="388.36,-1019.4 368.08,-1037.4 327.53,-1037.4 307.25,-1019.4 327.53,-1001.4 368.08,-1001.4 388.36,-1019.4"/>
<text text-anchor="middle" x="347.8" y="-1015.7" font-family="Times,serif" font-size="14.00">?n=0</text>
</g>
<!-- minit&#45;&gt;mdecide0 -->
<g id="edge45" class="edge">
<title>minit&#45;&gt;mdecide0</title>
<path fill="none" stroke="black" d="M347.8,-1088.2C347.8,-1076.56 347.8,-1060.95 347.8,-1047.64"/>
<polygon fill="black" stroke="black" points="351.3,-1047.58 347.8,-1037.58 344.3,-1047.58 351.3,-1047.58"/>
<text text-anchor="middle" x="352.8" y="-1059.2" font-family="Times,serif" font-size="14.00">n</text>
</g>
<!-- mn=0 -->
<g id="node30" class="node">
<title>mn=0</title>
<ellipse fill="green" stroke="green" cx="319.8" cy="-946.4" rx="7.2" ry="7.2"/>
</g>
<!-- mdecide0&#45;&gt;mn=0 -->
<g id="edge46" class="edge">
<title>mdecide0&#45;&gt;mn=0</title>
<path fill="none" stroke="grey" d="M341.03,-1001.21C336.41,-989.52 330.36,-974.17 325.9,-962.86"/>
<polygon fill="grey" stroke="grey" points="329.14,-961.53 322.21,-953.51 322.62,-964.09 329.14,-961.53"/>
</g>
<!-- mn!=0 -->
<g id="node31" class="node">
<title>mn!=0</title>
<ellipse fill="green" stroke="green" cx="352.8" cy="-946.4" rx="7.2" ry="7.2"/>
</g>
<!-- mdecide0&#45;&gt;mn!=0 -->
<g id="edge47" class="edge">
<title>mdecide0&#45;&gt;mn!=0</title>
<path fill="none" stroke="black" d="M349.01,-1001.21C349.81,-989.88 350.85,-975.12 351.64,-963.93"/>
<polygon fill="black" stroke="black" points="355.14,-964.07 352.35,-953.85 348.16,-963.58 355.14,-964.07"/>
</g>
<!-- merror -->
<g id="node32" class="node">
<title>merror</title>
<polygon fill="none" stroke="black" points="325.3,-831.4 260.3,-831.4 260.3,-807.4 325.3,-807.4 337.3,-819.4 325.3,-831.4"/>
<text text-anchor="middle" x="298.8" y="-815.7" font-family="Times,serif" font-size="14.00">&#39;Error\n&#39;</text>
</g>
<!-- mn=0&#45;&gt;merror -->
<g id="edge48" class="edge">
<title>mn=0&#45;&gt;merror</title>
<path fill="none" stroke="grey" d="M318.73,-939.03C315.95,-922.46 308.35,-877.24 303.38,-847.66"/>
<polygon fill="grey" stroke="grey" points="306.79,-846.84 301.69,-837.55 299.89,-848 306.79,-846.84"/>
</g>
<!-- mwhiletop -->
<g id="node37" class="node">
<title>mwhiletop</title>
<ellipse fill="black" stroke="black" cx="527.8" cy="-873.4" rx="1.8" ry="1.8"/>
</g>
<!-- mn!=0&#45;&gt;mwhiletop -->
<g id="edge51" class="edge">
<title>mn!=0&#45;&gt;mwhiletop</title>
<path fill="none" stroke="black" d="M359.45,-942.7C385.91,-931.97 483.89,-892.22 516.88,-878.83"/>
<polygon fill="black" stroke="black" points="518.31,-882.03 526.26,-875.02 515.68,-875.54 518.31,-882.03"/>
</g>
<!-- mlastjoin -->
<g id="node33" class="node">
<title>mlastjoin</title>
<ellipse fill="black" stroke="black" cx="333.8" cy="-91" rx="1.8" ry="1.8"/>
</g>
<!-- merror&#45;&gt;mlastjoin -->
<g id="edge49" class="edge">
<title>merror&#45;&gt;mlastjoin</title>
<path fill="none" stroke="grey" d="M297.89,-801.34C297.01,-783.43 295.8,-754.45 295.8,-729.4 295.8,-729.4 295.8,-729.4 295.8,-163 295.8,-137.91 314.47,-113.11 325.64,-100.52"/>
<polygon fill="grey" stroke="grey" points="328.53,-102.57 332.86,-92.9 323.44,-97.75 328.53,-102.57"/>
</g>
<!-- mfin -->
<g id="node34" class="node">
<title>mfin</title>
<polygon fill="orangered" stroke="black" points="333.8,-36 306.8,-18 333.8,0 360.8,-18 333.8,-36"/>
</g>
<!-- mlastjoin&#45;&gt;mfin -->
<g id="edge50" class="edge">
<title>mlastjoin&#45;&gt;mfin</title>
<path fill="none" stroke="grey" d="M333.8,-89C333.8,-84.31 333.8,-64.04 333.8,-46.51"/>
<polygon fill="grey" stroke="grey" points="337.3,-46.12 333.8,-36.12 330.3,-46.12 337.3,-46.12"/>
</g>
<!-- mq0_alloc -->
<g id="node35" class="node">
<title>mq0_alloc</title>
<ellipse fill="none" stroke="black" cx="500.8" cy="-946.4" rx="18" ry="18"/>
</g>
<!-- mq0_alloc&#45;&gt;mwhiletop -->
<g id="edge52" class="edge">
<title>mq0_alloc&#45;&gt;mwhiletop</title>
<path fill="none" stroke="blue" d="M506.93,-929.29C512.12,-915.64 519.4,-896.49 523.85,-884.79"/>
<polygon fill="blue" stroke="blue" points="527.19,-885.85 527.48,-875.26 520.65,-883.36 527.19,-885.85"/>
</g>
<!-- mq1_alloc -->
<g id="node36" class="node">
<title>mq1_alloc</title>
<ellipse fill="none" stroke="black" cx="554.8" cy="-946.4" rx="18" ry="18"/>
</g>
<!-- mq1_alloc&#45;&gt;mwhiletop -->
<g id="edge53" class="edge">
<title>mq1_alloc&#45;&gt;mwhiletop</title>
<path fill="none" stroke="blue" d="M548.68,-929.29C543.49,-915.64 536.2,-896.49 531.75,-884.79"/>
<polygon fill="blue" stroke="blue" points="534.96,-883.36 528.13,-875.26 528.41,-885.85 534.96,-883.36"/>
</g>
<!-- mdecide1 -->
<g id="node38" class="node">
<title>mdecide1</title>
<polygon fill="none" stroke="green" stroke-width="3" points="551.36,-765.4 531.08,-783.4 490.53,-783.4 470.25,-765.4 490.53,-747.4 531.08,-747.4 551.36,-765.4"/>
<text text-anchor="middle" x="510.8" y="-761.7" font-family="Times,serif" font-size="14.00">?n=1</text>
</g>
<!-- mwhiletop&#45;&gt;mdecide1 -->
<g id="edge54" class="edge">
<title>mwhiletop&#45;&gt;mdecide1</title>
<path fill="none" stroke="black" d="M526.71,-871.71C521.8,-868.54 501.71,-854.79 494.8,-837.4 489.14,-823.13 492.45,-806.41 497.5,-792.78"/>
<polygon fill="black" stroke="black" points="500.76,-794.06 501.38,-783.49 494.3,-791.37 500.76,-794.06"/>
<text text-anchor="middle" x="499.8" y="-815.7" font-family="Times,serif" font-size="14.00">n</text>
</g>
<!-- mwhiletop&#45;&gt;mdecide1 -->
<g id="edge55" class="edge">
<title>mwhiletop&#45;&gt;mdecide1</title>
<path fill="none" stroke="blue" d="M526.49,-871.72C520.49,-865.85 512.03,-823.04 509.21,-793.84"/>
<polygon fill="blue" stroke="blue" points="512.69,-793.5 508.44,-783.79 505.71,-794.03 512.69,-793.5"/>
</g>
<!-- mwhiletop&#45;&gt;mdecide1 -->
<g id="edge56" class="edge">
<title>mwhiletop&#45;&gt;mdecide1</title>
<path fill="none" stroke="blue" d="M528.9,-871.72C533.02,-865.85 527.75,-823.04 521.2,-793.84"/>
<polygon fill="blue" stroke="blue" points="524.52,-792.68 518.75,-783.79 517.72,-794.34 524.52,-792.68"/>
</g>
<!-- mn=1 -->
<g id="node39" class="node">
<title>mn=1</title>
<ellipse fill="green" stroke="green" cx="452.8" cy="-692.4" rx="7.2" ry="7.2"/>
</g>
<!-- mdecide1&#45;&gt;mn=1 -->
<g id="edge57" class="edge">
<title>mdecide1&#45;&gt;mn=1</title>
<path fill="none" stroke="grey" d="M496.76,-747.21C486.5,-734.65 472.79,-717.87 463.43,-706.41"/>
<polygon fill="grey" stroke="grey" points="466.04,-704.07 457,-698.54 460.62,-708.5 466.04,-704.07"/>
</g>
<!-- mn!=1 -->
<g id="node40" class="node">
<title>mn!=1</title>
<ellipse fill="green" stroke="green" cx="510.8" cy="-692.4" rx="7.2" ry="7.2"/>
</g>
<!-- mdecide1&#45;&gt;mn!=1 -->
<g id="edge58" class="edge">
<title>mdecide1&#45;&gt;mn!=1</title>
<path fill="none" stroke="black" d="M499.05,-747.21C496.37,-734.41 496.78,-717.23 500.27,-705.76"/>
<polygon fill="black" stroke="black" points="503.52,-707.08 504.8,-696.57 497.24,-703.99 503.52,-707.08"/>
</g>
<!-- mdecide1&#45;&gt;mn!=1 -->
<g id="edge59" class="edge">
<title>mdecide1&#45;&gt;mn!=1</title>
<path fill="none" stroke="blue" d="M510.8,-747.21C510.8,-735.88 510.8,-721.12 510.8,-709.93"/>
<polygon fill="blue" stroke="blue" points="514.3,-709.85 510.8,-699.85 507.3,-709.85 514.3,-709.85"/>
</g>
<!-- mdecide1&#45;&gt;mn!=1 -->
<g id="edge60" class="edge">
<title>mdecide1&#45;&gt;mn!=1</title>
<path fill="none" stroke="blue" d="M522.56,-747.21C525.24,-734.41 524.83,-717.23 521.33,-705.76"/>
<polygon fill="blue" stroke="blue" points="524.37,-703.99 516.81,-696.57 518.09,-707.08 524.37,-703.99"/>
</g>
<!-- mdone -->
<g id="node41" class="node">
<title>mdone</title>
<polygon fill="none" stroke="black" points="462.8,-577.4 400.8,-577.4 400.8,-553.4 462.8,-553.4 474.8,-565.4 462.8,-577.4"/>
<text text-anchor="middle" x="437.8" y="-561.7" font-family="Times,serif" font-size="14.00">&#39;Done\n&#39;</text>
</g>
<!-- mn=1&#45;&gt;mdone -->
<g id="edge61" class="edge">
<title>mn=1&#45;&gt;mdone</title>
<path fill="none" stroke="grey" d="M452.04,-685.03C450.05,-668.46 444.62,-623.24 441.07,-593.66"/>
<polygon fill="grey" stroke="grey" points="444.53,-593.07 439.86,-583.55 437.58,-593.9 444.53,-593.07"/>
</g>
<!-- mCZ -->
<g id="node42" class="node">
<title>mCZ</title>
<polygon fill="none" stroke="black" points="537.8,-637.4 483.8,-637.4 483.8,-601.4 537.8,-601.4 537.8,-637.4"/>
<text text-anchor="middle" x="510.8" y="-615.7" font-family="Times,serif" font-size="14.00">CZ</text>
</g>
<!-- mn!=1&#45;&gt;mCZ -->
<g id="edge63" class="edge">
<title>mn!=1&#45;&gt;mCZ</title>
<path fill="none" stroke="blue" d="M506.96,-685.83C504.57,-677.65 503.65,-661.84 504.21,-647.81"/>
<polygon fill="blue" stroke="blue" points="507.72,-647.8 504.93,-637.58 500.74,-647.31 507.72,-647.8"/>
</g>
<!-- mn!=1&#45;&gt;mCZ -->
<g id="edge64" class="edge">
<title>mn!=1&#45;&gt;mCZ</title>
<path fill="none" stroke="blue" d="M514.65,-685.83C517.04,-677.65 517.95,-661.84 517.4,-647.81"/>
<polygon fill="blue" stroke="blue" points="520.87,-647.31 516.68,-637.58 513.89,-647.8 520.87,-647.31"/>
</g>
<!-- mdecideeven -->
<g id="node43" class="node">
<title>mdecideeven</title>
<polygon fill="none" stroke="green" stroke-width="3" points="563.87,-511.4 537.34,-529.4 484.27,-529.4 457.73,-511.4 484.27,-493.4 537.34,-493.4 563.87,-511.4"/>
<text text-anchor="middle" x="510.8" y="-507.7" font-family="Times,serif" font-size="14.00">?n even</text>
</g>
<!-- mn!=1&#45;&gt;mdecideeven -->
<g id="edge65" class="edge">
<title>mn!=1&#45;&gt;mdecideeven</title>
<path fill="none" stroke="black" d="M515.51,-686.57C523.77,-677.71 540.6,-657.89 546.8,-637.4 558.52,-598.72 549.87,-584.48 533.8,-547.4 532.47,-544.33 530.88,-541.23 529.16,-538.22"/>
<polygon fill="black" stroke="black" points="532.01,-536.17 523.75,-529.53 526.06,-539.87 532.01,-536.17"/>
<text text-anchor="middle" x="557.8" y="-615.7" font-family="Times,serif" font-size="14.00">n</text>
</g>
<!-- mdone&#45;&gt;mlastjoin -->
<g id="edge62" class="edge">
<title>mdone&#45;&gt;mlastjoin</title>
<path fill="none" stroke="grey" d="M429.29,-547.27C404.45,-496.66 333.8,-348.06 333.8,-295.2 333.8,-295.2 333.8,-295.2 333.8,-163 333.8,-141.78 333.8,-116.98 333.8,-103.02"/>
<polygon fill="grey" stroke="grey" points="337.3,-103 333.8,-93 330.3,-103 337.3,-103"/>
</g>
<!-- mCZ&#45;&gt;mdecideeven -->
<g id="edge66" class="edge">
<title>mCZ&#45;&gt;mdecideeven</title>
<path fill="none" stroke="blue" d="M505.69,-601.37C503.86,-584.78 503.56,-559.28 504.81,-539.83"/>
<polygon fill="blue" stroke="blue" points="508.31,-540 505.65,-529.74 501.33,-539.41 508.31,-540"/>
</g>
<!-- mCZ&#45;&gt;mdecideeven -->
<g id="edge67" class="edge">
<title>mCZ&#45;&gt;mdecideeven</title>
<path fill="none" stroke="blue" d="M515.92,-601.37C517.75,-584.78 518.04,-559.28 516.8,-539.83"/>
<polygon fill="blue" stroke="blue" points="520.28,-539.41 515.95,-529.74 513.3,-540 520.28,-539.41"/>
</g>
<!-- mneven -->
<g id="node44" class="node">
<title>mneven</title>
<ellipse fill="green" stroke="green" cx="467.8" cy="-424.4" rx="7.2" ry="7.2"/>
</g>
<!-- mdecideeven&#45;&gt;mneven -->
<g id="edge68" class="edge">
<title>mdecideeven&#45;&gt;mneven</title>
<path fill="none" stroke="black" d="M491,-493.2C479.93,-477.89 468.83,-455.69 464.94,-440.91"/>
<polygon fill="black" stroke="black" points="468.35,-440 463.53,-430.56 461.41,-440.94 468.35,-440"/>
</g>
<!-- mdecideeven&#45;&gt;mneven -->
<g id="edge69" class="edge">
<title>mdecideeven&#45;&gt;mneven</title>
<path fill="none" stroke="blue" d="M502.1,-493.2C494.28,-477.74 482.91,-455.26 475.44,-440.49"/>
<polygon fill="blue" stroke="blue" points="478.43,-438.65 470.79,-431.31 472.18,-441.81 478.43,-438.65"/>
</g>
<!-- mdecideeven&#45;&gt;mneven -->
<g id="edge70" class="edge">
<title>mdecideeven&#45;&gt;mneven</title>
<path fill="none" stroke="blue" d="M513.2,-493.2C508.15,-475.68 494.01,-449.16 481.62,-435.04"/>
<polygon fill="blue" stroke="blue" points="483.9,-432.37 474.24,-428.04 479.09,-437.46 483.9,-432.37"/>
</g>
<!-- mnodd -->
<g id="node45" class="node">
<title>mnodd</title>
<ellipse fill="green" stroke="green" cx="528.8" cy="-424.4" rx="7.2" ry="7.2"/>
</g>
<!-- mdecideeven&#45;&gt;mnodd -->
<g id="edge71" class="edge">
<title>mdecideeven&#45;&gt;mnodd</title>
<path fill="none" stroke="black" d="M503.35,-493.2C503.26,-476.49 509.02,-451.58 516.69,-437.07"/>
<polygon fill="black" stroke="black" points="519.74,-438.81 522.56,-428.6 513.99,-434.82 519.74,-438.81"/>
</g>
<!-- mdecideeven&#45;&gt;mnodd -->
<g id="edge72" class="edge">
<title>mdecideeven&#45;&gt;mnodd</title>
<path fill="none" stroke="blue" d="M514.45,-493.2C517.62,-478.19 522.2,-456.57 525.33,-441.81"/>
<polygon fill="blue" stroke="blue" points="528.82,-442.2 527.47,-431.69 521.98,-440.75 528.82,-442.2"/>
</g>
<!-- mdecideeven&#45;&gt;mnodd -->
<g id="edge73" class="edge">
<title>mdecideeven&#45;&gt;mnodd</title>
<path fill="none" stroke="blue" d="M525.54,-493.2C532.31,-477.43 536.96,-454.36 536.17,-439.62"/>
<polygon fill="blue" stroke="blue" points="539.55,-438.65 534.17,-429.53 532.69,-440.02 539.55,-438.65"/>
</g>
<!-- mhalve -->
<g id="node46" class="node">
<title>mhalve</title>
<polygon fill="none" stroke="black" points="737.3,-355.4 668.3,-355.4 668.3,-319.4 737.3,-319.4 737.3,-355.4"/>
<text text-anchor="middle" x="702.8" y="-333.7" font-family="Times,serif" font-size="14.00">n → n/2</text>
</g>
<!-- mneven&#45;&gt;mhalve -->
<g id="edge74" class="edge">
<title>mneven&#45;&gt;mhalve</title>
<path fill="none" stroke="black" d="M474.19,-420.93C482.9,-417.57 498.99,-411.42 512.8,-406.4 577.4,-382.92 594.29,-379.12 658.8,-355.4 658.9,-355.36 659,-355.33 659.09,-355.29"/>
<polygon fill="black" stroke="black" points="660.11,-358.65 668.26,-351.87 657.66,-352.09 660.11,-358.65"/>
<text text-anchor="middle" x="610.8" y="-377.2" font-family="Times,serif" font-size="14.00">n</text>
</g>
<!-- mf -->
<g id="node47" class="node">
<title>mf</title>
<ellipse fill="none" stroke="black" cx="388.8" cy="-337.4" rx="27" ry="18"/>
<text text-anchor="middle" x="388.8" y="-333.7" font-family="Times,serif" font-size="14.00" fill="#8b4500">(f)</text>
</g>
<!-- mneven&#45;&gt;mf -->
<g id="edge75" class="edge">
<title>mneven&#45;&gt;mf</title>
<path fill="none" stroke="blue" d="M461.74,-419.96C449.2,-410.37 422.35,-382.65 404.77,-362.17"/>
<polygon fill="blue" stroke="blue" points="407.42,-359.88 398.31,-354.46 402.05,-364.38 407.42,-359.88"/>
</g>
<!-- mneven&#45;&gt;mf -->
<g id="edge76" class="edge">
<title>mneven&#45;&gt;mf</title>
<path fill="none" stroke="blue" d="M465.83,-417.29C457.72,-405.19 432.9,-377.71 413.44,-358.61"/>
<polygon fill="blue" stroke="blue" points="415.66,-355.9 406.02,-351.51 410.82,-360.95 415.66,-355.9"/>
</g>
<!-- mdecidebig -->
<g id="node49" class="node">
<title>mdecidebig</title>
<polygon fill="none" stroke="green" stroke-width="3" points="649.94,-337.4 595.87,-355.4 487.73,-355.4 433.66,-337.4 487.73,-319.4 595.87,-319.4 649.94,-337.4"/>
<text text-anchor="middle" x="541.8" y="-333.7" font-family="Times,serif" font-size="14.00">?n ≥ 1431655765</text>
</g>
<!-- mnodd&#45;&gt;mdecidebig -->
<g id="edge81" class="edge">
<title>mnodd&#45;&gt;mdecidebig</title>
<path fill="none" stroke="black" d="M522.24,-421.07C505.29,-414.68 462.31,-395.84 475.8,-373.4 478.49,-368.93 481.97,-365 485.91,-361.55"/>
<polygon fill="black" stroke="black" points="488.09,-364.29 493.99,-355.5 483.89,-358.69 488.09,-364.29"/>
<text text-anchor="middle" x="480.8" y="-377.2" font-family="Times,serif" font-size="14.00">n</text>
</g>
<!-- mnodd&#45;&gt;mdecidebig -->
<g id="edge82" class="edge">
<title>mnodd&#45;&gt;mdecidebig</title>
<path fill="none" stroke="blue" d="M526.07,-417.56C524.85,-406.97 527.46,-384.01 531.31,-365.53"/>
<polygon fill="blue" stroke="blue" points="534.77,-366.1 533.63,-355.56 527.96,-364.51 534.77,-366.1"/>
</g>
<!-- mnodd&#45;&gt;mdecidebig -->
<g id="edge83" class="edge">
<title>mnodd&#45;&gt;mdecidebig</title>
<path fill="none" stroke="blue" d="M532.99,-418.34C537.53,-408.19 542.1,-384.72 543.97,-365.83"/>
<polygon fill="blue" stroke="blue" points="547.47,-365.87 544.72,-355.64 540.49,-365.35 547.47,-365.87"/>
</g>
<!-- mhalve&#45;&gt;mwhiletop -->
<g id="edge78" class="edge">
<title>mhalve&#45;&gt;mwhiletop</title>
<path fill="none" stroke="black" d="M686.97,-355.51C673.67,-371.72 656.8,-397.39 656.8,-423.4 656.8,-766.4 656.8,-766.4 656.8,-766.4 656.8,-827 570.77,-859.32 539.22,-869.13"/>
<polygon fill="black" stroke="black" points="537.88,-865.87 529.25,-872.02 539.83,-872.6 537.88,-865.87"/>
</g>
<!-- mf&#45;&gt;mwhiletop -->
<g id="edge79" class="edge">
<title>mf&#45;&gt;mwhiletop</title>
<path fill="none" stroke="blue" d="M375.44,-353.09C365.9,-369.76 355.8,-397.95 355.8,-423.4 355.8,-766.4 355.8,-766.4 355.8,-766.4 355.8,-840.98 477.22,-865.78 516.26,-871.18"/>
<polygon fill="blue" stroke="blue" points="515.96,-874.67 526.3,-872.33 516.76,-867.71 515.96,-874.67"/>
</g>
<!-- mf&#45;&gt;mwhiletop -->
<g id="edge80" class="edge">
<title>mf&#45;&gt;mwhiletop</title>
<path fill="none" stroke="blue" d="M387.83,-355.58C382.95,-372.47 373.8,-399.17 373.8,-423.4 373.8,-766.4 373.8,-766.4 373.8,-766.4 373.8,-836.44 480.88,-862.58 516.67,-869.97"/>
<polygon fill="blue" stroke="blue" points="516.03,-873.41 526.53,-871.94 517.4,-866.55 516.03,-873.41"/>
</g>
<!-- mwbeven -->
<g id="node48" class="node">
<title>mwbeven</title>
<ellipse fill="none" stroke="black" cx="388.8" cy="-251" rx="27" ry="18"/>
<text text-anchor="middle" x="388.8" y="-247.3" font-family="Times,serif" font-size="14.00" fill="#8b4500">(w)</text>
</g>
<!-- mf&#45;&gt;mwbeven -->
<g id="edge77" class="edge">
<title>mf&#45;&gt;mwbeven</title>
<path fill="none" stroke="black" d="M388.8,-319.32C388.8,-307.88 388.8,-292.57 388.8,-279.44"/>
<polygon fill="black" stroke="black" points="392.3,-279.05 388.8,-269.05 385.3,-279.05 392.3,-279.05"/>
</g>
<!-- mnbig -->
<g id="node50" class="node">
<title>mnbig</title>
<ellipse fill="green" stroke="green" cx="469.8" cy="-251" rx="7.2" ry="7.2"/>
</g>
<!-- mdecidebig&#45;&gt;mnbig -->
<g id="edge84" class="edge">
<title>mdecidebig&#45;&gt;mnbig</title>
<path fill="none" stroke="grey" d="M527.23,-319.32C513.49,-303.21 493.18,-279.41 480.76,-264.85"/>
<polygon fill="grey" stroke="grey" points="483.33,-262.46 474.18,-257.12 478,-267 483.33,-262.46"/>
</g>
<!-- mnsmall -->
<g id="node51" class="node">
<title>mnsmall</title>
<ellipse fill="green" stroke="green" cx="587.8" cy="-251" rx="7.2" ry="7.2"/>
</g>
<!-- mdecidebig&#45;&gt;mnsmall -->
<g id="edge85" class="edge">
<title>mdecidebig&#45;&gt;mnsmall</title>
<path fill="none" stroke="black" d="M540.02,-319.32C545.69,-301.93 560.76,-275.59 573.64,-261.57"/>
<polygon fill="black" stroke="black" points="576.24,-263.94 581.28,-254.62 571.53,-258.76 576.24,-263.94"/>
</g>
<!-- mdecidebig&#45;&gt;mnsmall -->
<g id="edge86" class="edge">
<title>mdecidebig&#45;&gt;mnsmall</title>
<path fill="none" stroke="blue" d="M551.11,-319.32C559.48,-303.97 571.64,-281.65 579.64,-266.98"/>
<polygon fill="blue" stroke="blue" points="582.9,-268.32 584.61,-257.86 576.75,-264.97 582.9,-268.32"/>
</g>
<!-- mdecidebig&#45;&gt;mnsmall -->
<g id="edge87" class="edge">
<title>mdecidebig&#45;&gt;mnsmall</title>
<path fill="none" stroke="blue" d="M562.21,-319.32C573.82,-304.12 585.71,-282.08 590.12,-267.4"/>
<polygon fill="blue" stroke="blue" points="593.64,-267.57 591.89,-257.12 586.74,-266.38 593.64,-267.57"/>
</g>
<!-- moverflow -->
<g id="node52" class="node">
<title>moverflow</title>
<polygon fill="none" stroke="black" points="465.8,-176 375.8,-176 375.8,-152 465.8,-152 477.8,-164 465.8,-176"/>
<text text-anchor="middle" x="426.8" y="-160.3" font-family="Times,serif" font-size="14.00">&#39;Overflow\n&#39;</text>
</g>
<!-- mnbig&#45;&gt;moverflow -->
<g id="edge88" class="edge">
<title>mnbig&#45;&gt;moverflow</title>
<path fill="none" stroke="grey" d="M466.85,-244.16C461.39,-233.38 449.44,-209.75 440.01,-191.1"/>
<polygon fill="grey" stroke="grey" points="443.12,-189.51 435.49,-182.16 436.88,-192.67 443.12,-189.51"/>
</g>
<!-- m3n -->
<g id="node53" class="node">
<title>m3n</title>
<polygon fill="none" stroke="black" points="822.8,-182 712.8,-182 712.8,-146 822.8,-146 822.8,-182"/>
<text text-anchor="middle" x="767.8" y="-160.3" font-family="Times,serif" font-size="14.00">n → (3n+1)/2</text>
</g>
<!-- mnsmall&#45;&gt;m3n -->
<g id="edge90" class="edge">
<title>mnsmall&#45;&gt;m3n</title>
<path fill="none" stroke="black" d="M594.21,-246.97C614.44,-237.42 678.24,-207.29 722.58,-186.35"/>
<polygon fill="black" stroke="black" points="724.18,-189.47 731.73,-182.04 721.19,-183.14 724.18,-189.47"/>
<text text-anchor="middle" x="692.8" y="-203.8" font-family="Times,serif" font-size="14.00">n</text>
</g>
<!-- mf2 -->
<g id="node54" class="node">
<title>mf2</title>
<ellipse fill="none" stroke="black" cx="656.8" cy="-164" rx="27" ry="18"/>
<text text-anchor="middle" x="656.8" y="-160.3" font-family="Times,serif" font-size="14.00" fill="#8b4500">(f)</text>
</g>
<!-- mnsmall&#45;&gt;mf2 -->
<g id="edge91" class="edge">
<title>mnsmall&#45;&gt;mf2</title>
<path fill="none" stroke="blue" d="M589.06,-243.89C595.64,-231.98 616.67,-205.16 633.75,-186.11"/>
<polygon fill="blue" stroke="blue" points="636.33,-188.46 640.53,-178.73 631.18,-183.72 636.33,-188.46"/>
</g>
<!-- mnsmall&#45;&gt;mf2 -->
<g id="edge92" class="edge">
<title>mnsmall&#45;&gt;mf2</title>
<path fill="none" stroke="blue" d="M593.72,-246.35C605.09,-236.67 628.03,-209.73 643.11,-189.49"/>
<polygon fill="blue" stroke="blue" points="646.01,-191.44 649.03,-181.29 640.33,-187.35 646.01,-191.44"/>
</g>
<!-- moverflow&#45;&gt;mlastjoin -->
<g id="edge89" class="edge">
<title>moverflow&#45;&gt;mlastjoin</title>
<path fill="none" stroke="grey" d="M404.29,-145.81C384.61,-130.79 357.03,-109.73 342.92,-98.96"/>
<polygon fill="grey" stroke="grey" points="344.96,-96.11 334.89,-92.83 340.71,-101.68 344.96,-96.11"/>
</g>
<!-- m3n&#45;&gt;mwhiletop -->
<g id="edge94" class="edge">
<title>m3n&#45;&gt;mwhiletop</title>
<path fill="none" stroke="black" d="M786.99,-182.22C802.52,-198.11 821.8,-223.25 821.8,-250 821.8,-766.4 821.8,-766.4 821.8,-766.4 821.8,-805 804.71,-817.23 771.8,-837.4 732.05,-861.76 583.2,-870.01 539.77,-871.92"/>
<polygon fill="black" stroke="black" points="539.37,-868.44 529.52,-872.34 539.65,-875.43 539.37,-868.44"/>
</g>
<!-- mf2&#45;&gt;mwhiletop -->
<g id="edge95" class="edge">
<title>mf2&#45;&gt;mwhiletop</title>
<path fill="none" stroke="blue" d="M675.7,-176.87C707.14,-194.3 765.8,-227.21 765.8,-250 765.8,-766.4 765.8,-766.4 765.8,-766.4 765.8,-867.7 588.19,-873.42 539.68,-872.82"/>
<polygon fill="blue" stroke="blue" points="539.62,-869.32 529.53,-872.55 539.43,-876.31 539.62,-869.32"/>
</g>
<!-- mf2&#45;&gt;mwhiletop -->
<g id="edge96" class="edge">
<title>mf2&#45;&gt;mwhiletop</title>
<path fill="none" stroke="blue" d="M679.87,-173.48C716.74,-189.7 783.8,-225.64 783.8,-250 783.8,-766.4 783.8,-766.4 783.8,-766.4 783.8,-872.18 590.13,-873.74 539.53,-872.71"/>
<polygon fill="blue" stroke="blue" points="539.42,-869.21 529.33,-872.43 539.23,-876.2 539.42,-869.21"/>
</g>
<!-- mwbodd -->
<g id="node55" class="node">
<title>mwbodd</title>
<ellipse fill="none" stroke="black" cx="656.8" cy="-91" rx="27" ry="18"/>
<text text-anchor="middle" x="656.8" y="-87.3" font-family="Times,serif" font-size="14.00" fill="#8b4500">(w)</text>
</g>
<!-- mf2&#45;&gt;mwbodd -->
<g id="edge93" class="edge">
<title>mf2&#45;&gt;mwbodd</title>
<path fill="none" stroke="black" d="M656.8,-145.81C656.8,-137.79 656.8,-128.05 656.8,-119.07"/>
<polygon fill="black" stroke="black" points="660.3,-119.03 656.8,-109.03 653.3,-119.03 660.3,-119.03"/>
</g>
</g>
</svg>
