<?xml version="1.0" encoding="UTF-8" standalone="no"?>
<!DOCTYPE svg PUBLIC "-//W3C//DTD SVG 1.1//EN"
 "http://www.w3.org/Graphics/SVG/1.1/DTD/svg11.dtd">
<!-- Generated by graphviz version 2.43.0 (0)
 -->
<!-- Title: fgh Pages: 1 -->
<svg width="148pt" height="378pt"
 viewBox="0.00 0.00 148.00 378.00" xmlns="http://www.w3.org/2000/svg" xmlns:xlink="http://www.w3.org/1999/xlink">
<g id="graph0" class="graph" transform="scale(1 1) rotate(0) translate(4 374)">
<title>fgh</title>
<polygon fill="white" stroke="transparent" points="-4,4 -4,-374 144,-374 144,4 -4,4"/>
<!-- init -->
<g id="node1" class="node">
<title>init</title>
<polygon fill="orange" stroke="black" points="68,-370 20.41,-352 68,-334 115.59,-352 68,-370"/>
<text text-anchor="middle" x="68" y="-348.3" font-family="Times,serif" font-size="14.00">main</text>
</g>
<!-- f -->
<g id="node2" class="node">
<title>f</title>
<ellipse fill="none" stroke="black" cx="27" cy="-265" rx="27" ry="18"/>
<text text-anchor="middle" x="27" y="-261.3" font-family="Times,serif" font-size="14.00" fill="#8b4500">(f)</text>
</g>
<!-- init&#45;&gt;f -->
<g id="edge1" class="edge">
<title>init&#45;&gt;f</title>
<path fill="none" stroke="blue" d="M52.16,-339.84C44.74,-333.7 36.55,-325.42 32,-316 28.61,-308.98 26.98,-300.76 26.29,-293.05"/>
<polygon fill="blue" stroke="blue" points="29.78,-292.83 25.86,-282.99 22.79,-293.13 29.78,-292.83"/>
<text text-anchor="middle" x="37" y="-304.8" font-family="Times,serif" font-size="14.00">q</text>
</g>
<!-- init&#45;&gt;f -->
<g id="edge2" class="edge">
<title>init&#45;&gt;f</title>
<path fill="none" stroke="blue" d="M61.04,-336.58C55.09,-324.23 46.36,-306.14 39.24,-291.37"/>
<polygon fill="blue" stroke="blue" points="42.33,-289.72 34.83,-282.23 36.02,-292.76 42.33,-289.72"/>
</g>
<!-- g -->
<g id="node3" class="node">
<title>g</title>
<ellipse fill="none" stroke="black" cx="68" cy="-178" rx="27" ry="18"/>
<text text-anchor="middle" x="68" y="-174.3" font-family="Times,serif" font-size="14.00" fill="#8b4500">(g)</text>
</g>
<!-- init&#45;&gt;g -->
<g id="edge4" class="edge">
<title>init&#45;&gt;g</title>
<path fill="none" stroke="blue" d="M68,-333.88C68,-304 68,-242.11 68,-206.27"/>
<polygon fill="blue" stroke="blue" points="71.5,-206.05 68,-196.05 64.5,-206.05 71.5,-206.05"/>
</g>
<!-- h -->
<g id="node4" class="node">
<title>h</title>
<ellipse fill="none" stroke="black" cx="113" cy="-91" rx="27" ry="18"/>
<text text-anchor="middle" x="113" y="-87.3" font-family="Times,serif" font-size="14.00" fill="#8b4500">(h)</text>
</g>
<!-- init&#45;&gt;h -->
<g id="edge6" class="edge">
<title>init&#45;&gt;h</title>
<path fill="none" stroke="blue" d="M74.66,-336.24C77.24,-330.08 80.04,-322.79 82,-316 101.92,-246.95 109.21,-162.11 111.74,-119.37"/>
<polygon fill="blue" stroke="blue" points="115.24,-119.38 112.3,-109.21 108.25,-119 115.24,-119.38"/>
</g>
<!-- f&#45;&gt;g -->
<g id="edge3" class="edge">
<title>f&#45;&gt;g</title>
<path fill="none" stroke="blue" d="M34.91,-247.61C40.8,-235.38 48.97,-218.44 55.72,-204.46"/>
<polygon fill="blue" stroke="blue" points="58.93,-205.87 60.12,-195.34 52.62,-202.82 58.93,-205.87"/>
<text text-anchor="middle" x="54" y="-217.8" font-family="Times,serif" font-size="14.00">q</text>
</g>
<!-- fin -->
<g id="node5" class="node">
<title>fin</title>
<polygon fill="orangered" stroke="black" points="75,-36 48,-18 75,0 102,-18 75,-36"/>
</g>
<!-- f&#45;&gt;fin -->
<g id="edge8" class="edge">
<title>f&#45;&gt;fin</title>
<path fill="none" stroke="blue" d="M26.53,-246.93C26.26,-226.2 26.74,-190.28 32,-160 39.38,-117.52 55.67,-69.88 65.95,-42.28"/>
<polygon fill="blue" stroke="blue" points="69.29,-43.32 69.56,-32.73 62.75,-40.84 69.29,-43.32"/>
</g>
<!-- g&#45;&gt;h -->
<g id="edge5" class="edge">
<title>g&#45;&gt;h</title>
<path fill="none" stroke="blue" d="M76.68,-160.61C83.15,-148.38 92.12,-131.44 99.52,-117.46"/>
<polygon fill="blue" stroke="blue" points="102.76,-118.81 104.35,-108.34 96.58,-115.54 102.76,-118.81"/>
<text text-anchor="middle" x="98" y="-130.8" font-family="Times,serif" font-size="14.00">q</text>
</g>
<!-- g&#45;&gt;fin -->
<g id="edge9" class="edge">
<title>g&#45;&gt;fin</title>
<path fill="none" stroke="blue" d="M68.76,-159.79C69.98,-132.34 72.37,-78.43 73.81,-45.87"/>
<polygon fill="blue" stroke="blue" points="77.31,-45.86 74.26,-35.71 70.32,-45.55 77.31,-45.86"/>
</g>
<!-- h&#45;&gt;fin -->
<g id="edge7" class="edge">
<title>h&#45;&gt;fin</title>
<path fill="none" stroke="blue" d="M99.53,-75.29C93.52,-66.21 86.87,-54.33 81.81,-43.82"/>
<polygon fill="blue" stroke="blue" points="84.99,-42.35 77.68,-34.68 78.61,-45.23 84.99,-42.35"/>
</g>
<!-- h&#45;&gt;fin -->
<g id="edge10" class="edge">
<title>h&#45;&gt;fin</title>
<path fill="none" stroke="blue" d="M109.68,-72.81C105.1,-62.17 97.83,-48.5 90.97,-37.6"/>
<polygon fill="blue" stroke="blue" points="93.85,-35.6 85.38,-29.22 88.02,-39.48 93.85,-35.6"/>
</g>
</g>
</svg>
