<?xml version="1.0" encoding="UTF-8" standalone="no"?>
<!DOCTYPE svg PUBLIC "-//W3C//DTD SVG 1.1//EN"
 "http://www.w3.org/Graphics/SVG/1.1/DTD/svg11.dtd">
<!-- Generated by graphviz version 2.43.0 (0)
 -->
<!-- Title: hang Pages: 1 -->
<svg width="140pt" height="425pt"
 viewBox="0.00 0.00 140.00 425.00" xmlns="http://www.w3.org/2000/svg" xmlns:xlink="http://www.w3.org/1999/xlink">
<g id="graph0" class="graph" transform="scale(1 1) rotate(0) translate(4 421)">
<title>hang</title>
<polygon fill="white" stroke="transparent" points="-4,4 -4,-421 136,-421 136,4 -4,4"/>
<!-- init -->
<g id="node1" class="node">
<title>init</title>
<polygon fill="orange" stroke="black" points="62,-417 35,-399 62,-381 89,-399 62,-417"/>
</g>
<!-- D0 -->
<g id="node3" class="node">
<title>D0</title>
<polygon fill="none" stroke="green" stroke-width="3" points="54,-312 40.5,-330 13.5,-330 0,-312 13.5,-294 40.5,-294 54,-312"/>
</g>
<!-- init&#45;&gt;D0 -->
<g id="edge1" class="edge">
<title>init&#45;&gt;D0</title>
<path fill="none" stroke="black" d="M46.52,-390.96C35.79,-385.14 22.33,-375.77 16,-363 12.49,-355.91 12.75,-347.71 14.58,-340.02"/>
<polygon fill="black" stroke="black" points="17.96,-340.95 17.71,-330.36 11.3,-338.79 17.96,-340.95"/>
<text text-anchor="middle" x="20.5" y="-351.8" font-family="Times,serif" font-size="14.00">a</text>
</g>
<!-- init&#45;&gt;D0 -->
<g id="edge2" class="edge">
<title>init&#45;&gt;D0</title>
<path fill="none" stroke="black" d="M56.38,-384.34C51.45,-372.37 44.14,-354.62 38.04,-339.81"/>
<polygon fill="black" stroke="black" points="41.1,-338.06 34.06,-330.15 34.63,-340.72 41.1,-338.06"/>
<text text-anchor="middle" x="50" y="-351.8" font-family="Times,serif" font-size="14.00">c</text>
</g>
<!-- D1 -->
<g id="node4" class="node">
<title>D1</title>
<polygon fill="none" stroke="green" stroke-width="3" points="132,-312 118.5,-330 91.5,-330 78,-312 91.5,-294 118.5,-294 132,-312"/>
</g>
<!-- init&#45;&gt;D1 -->
<g id="edge3" class="edge">
<title>init&#45;&gt;D1</title>
<path fill="none" stroke="black" d="M65.76,-383.06C68.64,-372.86 73.12,-359.2 79,-348 80.76,-344.65 82.82,-341.28 85,-338.02"/>
<polygon fill="black" stroke="black" points="87.95,-339.91 90.91,-329.74 82.25,-335.84 87.95,-339.91"/>
<text text-anchor="middle" x="84" y="-351.8" font-family="Times,serif" font-size="14.00">b</text>
</g>
<!-- init&#45;&gt;D1 -->
<g id="edge4" class="edge">
<title>init&#45;&gt;D1</title>
<path fill="none" stroke="black" d="M71.81,-387.33C77.47,-380.72 84.36,-371.83 89,-363 92.77,-355.82 95.85,-347.59 98.27,-339.9"/>
<polygon fill="black" stroke="black" points="101.64,-340.83 101.07,-330.25 94.92,-338.88 101.64,-340.83"/>
<text text-anchor="middle" x="100" y="-351.8" font-family="Times,serif" font-size="14.00">d</text>
</g>
<!-- fin -->
<g id="node2" class="node">
<title>fin</title>
<polygon fill="orangered" stroke="black" points="63,-36 36,-18 63,0 90,-18 63,-36"/>
</g>
<!-- C00 -->
<g id="node5" class="node">
<title>C00</title>
<ellipse fill="green" stroke="green" cx="15" cy="-235.8" rx="7.2" ry="7.2"/>
</g>
<!-- D0&#45;&gt;C00 -->
<g id="edge5" class="edge">
<title>D0&#45;&gt;C00</title>
<path fill="none" stroke="black" d="M20.54,-293.79C18.73,-288.19 16.98,-281.91 16,-276 14.77,-268.6 14.41,-260.3 14.4,-253.25"/>
<polygon fill="black" stroke="black" points="17.9,-253.31 14.62,-243.23 10.91,-253.16 17.9,-253.31"/>
<text text-anchor="middle" x="20.5" y="-264.8" font-family="Times,serif" font-size="14.00">a</text>
</g>
<!-- C01 -->
<g id="node6" class="node">
<title>C01</title>
<ellipse fill="green" stroke="green" cx="47" cy="-235.8" rx="7.2" ry="7.2"/>
</g>
<!-- D0&#45;&gt;C01 -->
<g id="edge6" class="edge">
<title>D0&#45;&gt;C01</title>
<path fill="none" stroke="black" d="M31.64,-293.79C34.96,-281.46 39.41,-264.97 42.66,-252.9"/>
<polygon fill="black" stroke="black" points="46.11,-253.53 45.34,-242.97 39.36,-251.71 46.11,-253.53"/>
<text text-anchor="middle" x="43" y="-264.8" font-family="Times,serif" font-size="14.00">c</text>
</g>
<!-- C10 -->
<g id="node7" class="node">
<title>C10</title>
<ellipse fill="green" stroke="green" cx="79" cy="-235.8" rx="7.2" ry="7.2"/>
</g>
<!-- D1&#45;&gt;C10 -->
<g id="edge7" class="edge">
<title>D1&#45;&gt;C10</title>
<path fill="none" stroke="black" d="M98.97,-293.79C94.61,-281.34 88.75,-264.63 84.51,-252.53"/>
<polygon fill="black" stroke="black" points="87.77,-251.25 81.16,-242.97 81.16,-253.56 87.77,-251.25"/>
<text text-anchor="middle" x="97" y="-264.8" font-family="Times,serif" font-size="14.00">b</text>
</g>
<!-- C11 -->
<g id="node8" class="node">
<title>C11</title>
<ellipse fill="green" stroke="green" cx="111" cy="-235.8" rx="7.2" ry="7.2"/>
</g>
<!-- D1&#45;&gt;C11 -->
<g id="edge8" class="edge">
<title>D1&#45;&gt;C11</title>
<path fill="none" stroke="black" d="M106.39,-293.79C107.37,-281.72 108.67,-265.66 109.64,-253.66"/>
<polygon fill="black" stroke="black" points="113.16,-253.57 110.47,-243.32 106.18,-253.01 113.16,-253.57"/>
<text text-anchor="middle" x="113" y="-264.8" font-family="Times,serif" font-size="14.00">d</text>
</g>
<!-- J0 -->
<g id="node9" class="node">
<title>J0</title>
<polygon fill="none" stroke="black" points="54,-177.6 0,-177.6 0,-141.6 54,-141.6 54,-177.6"/>
<text text-anchor="middle" x="27" y="-155.9" font-family="Times,serif" font-size="14.00">AB</text>
</g>
<!-- C00&#45;&gt;J0 -->
<g id="edge9" class="edge">
<title>C00&#45;&gt;J0</title>
<path fill="none" stroke="black" d="M14.62,-228.37C14.28,-220.56 14.1,-207.02 16,-195.6 16.45,-192.92 17.05,-190.17 17.74,-187.44"/>
<polygon fill="black" stroke="black" points="21.11,-188.39 20.54,-177.81 14.39,-186.44 21.11,-188.39"/>
<text text-anchor="middle" x="20.5" y="-199.4" font-family="Times,serif" font-size="14.00">a</text>
</g>
<!-- J1 -->
<g id="node10" class="node">
<title>J1</title>
<polygon fill="none" stroke="black" points="126,-177.6 72,-177.6 72,-141.6 126,-141.6 126,-177.6"/>
<text text-anchor="middle" x="99" y="-155.9" font-family="Times,serif" font-size="14.00">CD</text>
</g>
<!-- C01&#45;&gt;J1 -->
<g id="edge10" class="edge">
<title>C01&#45;&gt;J1</title>
<path fill="none" stroke="black" d="M45.72,-228.5C44.4,-220.36 43.26,-205.97 49,-195.6 52.56,-189.16 57.87,-183.64 63.72,-179.02"/>
<polygon fill="black" stroke="black" points="65.74,-181.87 71.91,-173.26 61.71,-176.15 65.74,-181.87"/>
<text text-anchor="middle" x="53" y="-199.4" font-family="Times,serif" font-size="14.00">c</text>
</g>
<!-- C10&#45;&gt;J0 -->
<g id="edge11" class="edge">
<title>C10&#45;&gt;J0</title>
<path fill="none" stroke="black" d="M76,-229.04C71.85,-221.24 63.97,-206.97 56,-195.6 53.67,-192.28 51.11,-188.88 48.5,-185.57"/>
<polygon fill="black" stroke="black" points="51.05,-183.16 42.03,-177.61 45.62,-187.58 51.05,-183.16"/>
<text text-anchor="middle" x="70" y="-199.4" font-family="Times,serif" font-size="14.00">b</text>
</g>
<!-- C11&#45;&gt;J1 -->
<g id="edge12" class="edge">
<title>C11&#45;&gt;J1</title>
<path fill="none" stroke="black" d="M109.98,-228.47C108.53,-219.51 105.78,-202.55 103.4,-187.83"/>
<polygon fill="black" stroke="black" points="106.81,-186.96 101.76,-177.65 99.9,-188.08 106.81,-186.96"/>
<text text-anchor="middle" x="111" y="-199.4" font-family="Times,serif" font-size="14.00">d</text>
</g>
<!-- join -->
<g id="node11" class="node">
<title>join</title>
<ellipse fill="black" stroke="black" cx="63" cy="-88.8" rx="1.8" ry="1.8"/>
</g>
<!-- J0&#45;&gt;join -->
<g id="edge13" class="edge">
<title>J0&#45;&gt;join</title>
<path fill="none" stroke="black" d="M35.9,-141.59C42.84,-128.32 52.24,-110.37 57.95,-99.46"/>
<polygon fill="black" stroke="black" points="61.05,-101.08 62.58,-90.59 54.85,-97.83 61.05,-101.08"/>
<text text-anchor="middle" x="56.5" y="-112.4" font-family="Times,serif" font-size="14.00">e</text>
</g>
<!-- J1&#45;&gt;join -->
<g id="edge14" class="edge">
<title>J1&#45;&gt;join</title>
<path fill="none" stroke="black" d="M90.1,-141.59C83.16,-128.32 73.76,-110.37 68.05,-99.46"/>
<polygon fill="black" stroke="black" points="71.15,-97.83 63.42,-90.59 64.95,-101.08 71.15,-97.83"/>
<text text-anchor="middle" x="83.5" y="-112.4" font-family="Times,serif" font-size="14.00">e</text>
</g>
<!-- join&#45;&gt;fin -->
<g id="edge15" class="edge">
<title>join&#45;&gt;fin</title>
<path fill="none" stroke="black" d="M63,-86.83C63,-82.34 63,-63.11 63,-46.27"/>
<polygon fill="black" stroke="black" points="66.5,-46.24 63,-36.24 59.5,-46.24 66.5,-46.24"/>
<text text-anchor="middle" x="67.5" y="-57.8" font-family="Times,serif" font-size="14.00">e</text>
</g>
</g>
</svg>
