<?xml version="1.0" encoding="UTF-8" standalone="no"?>
<!DOCTYPE svg PUBLIC "-//W3C//DTD SVG 1.1//EN"
 "http://www.w3.org/Graphics/SVG/1.1/DTD/svg11.dtd">
<!-- Generated by graphviz version 2.43.0 (0)
 -->
<!-- Title: race Pages: 1 -->
<svg width="134pt" height="273pt"
 viewBox="0.00 0.00 134.00 272.60" xmlns="http://www.w3.org/2000/svg" xmlns:xlink="http://www.w3.org/1999/xlink">
<g id="graph0" class="graph" transform="scale(1 1) rotate(0) translate(4 268.6)">
<title>race</title>
<polygon fill="white" stroke="transparent" points="-4,4 -4,-268.6 130,-268.6 130,4 -4,4"/>
<!-- init -->
<g id="node1" class="node">
<title>init</title>
<polygon fill="orange" stroke="black" points="63,-264.6 36,-246.6 63,-228.6 90,-246.6 63,-264.6"/>
</g>
<!-- J0 -->
<g id="node3" class="node">
<title>J0</title>
<polygon fill="none" stroke="black" points="54,-177.6 0,-177.6 0,-141.6 54,-141.6 54,-177.6"/>
<text text-anchor="middle" x="27" y="-155.9" font-family="Times,serif" font-size="14.00">A</text>
</g>
<!-- init&#45;&gt;J0 -->
<g id="edge1" class="edge">
<title>init&#45;&gt;J0</title>
<path fill="none" stroke="black" d="M57.38,-232.32C52.28,-220.29 44.63,-202.21 38.27,-187.22"/>
<polygon fill="black" stroke="black" points="41.45,-185.75 34.33,-177.9 35.01,-188.48 41.45,-185.75"/>
<text text-anchor="middle" x="52.5" y="-199.4" font-family="Times,serif" font-size="14.00">a</text>
</g>
<!-- J1 -->
<g id="node4" class="node">
<title>J1</title>
<polygon fill="none" stroke="black" points="126,-177.6 72,-177.6 72,-141.6 126,-141.6 126,-177.6"/>
<text text-anchor="middle" x="99" y="-155.9" font-family="Times,serif" font-size="14.00">B</text>
</g>
<!-- init&#45;&gt;J1 -->
<g id="edge2" class="edge">
<title>init&#45;&gt;J1</title>
<path fill="none" stroke="black" d="M68.62,-232.32C73.72,-220.29 81.37,-202.21 87.73,-187.22"/>
<polygon fill="black" stroke="black" points="90.99,-188.48 91.67,-177.9 84.55,-185.75 90.99,-188.48"/>
<text text-anchor="middle" x="88" y="-199.4" font-family="Times,serif" font-size="14.00">b</text>
</g>
<!-- fin -->
<g id="node2" class="node">
<title>fin</title>
<polygon fill="orangered" stroke="black" points="62,-36 35,-18 62,0 89,-18 62,-36"/>
</g>
<!-- join -->
<g id="node5" class="node">
<title>join</title>
<ellipse fill="black" stroke="black" cx="62" cy="-88.8" rx="1.8" ry="1.8"/>
</g>
<!-- J0&#45;&gt;join -->
<g id="edge3" class="edge">
<title>J0&#45;&gt;join</title>
<path fill="none" stroke="black" d="M35.65,-141.59C42.33,-128.47 51.34,-110.76 56.9,-99.82"/>
<polygon fill="black" stroke="black" points="60.18,-101.09 61.6,-90.59 53.94,-97.92 60.18,-101.09"/>
<text text-anchor="middle" x="56" y="-112.4" font-family="Times,serif" font-size="14.00">c</text>
</g>
<!-- J1&#45;&gt;join -->
<g id="edge4" class="edge">
<title>J1&#45;&gt;join</title>
<path fill="none" stroke="black" d="M89.85,-141.59C82.72,-128.32 73.06,-110.37 67.19,-99.46"/>
<polygon fill="black" stroke="black" points="70.25,-97.74 62.43,-90.59 64.08,-101.06 70.25,-97.74"/>
<text text-anchor="middle" x="83" y="-112.4" font-family="Times,serif" font-size="14.00">c</text>
</g>
<!-- join&#45;&gt;fin -->
<g id="edge5" class="edge">
<title>join&#45;&gt;fin</title>
<path fill="none" stroke="black" d="M62,-86.83C62,-82.34 62,-63.11 62,-46.27"/>
<polygon fill="black" stroke="black" points="65.5,-46.24 62,-36.24 58.5,-46.24 65.5,-46.24"/>
<text text-anchor="middle" x="66" y="-57.8" font-family="Times,serif" font-size="14.00">c</text>
</g>
</g>
</svg>
