<?xml version="1.0" encoding="UTF-8" standalone="no"?>
<!DOCTYPE svg PUBLIC "-//W3C//DTD SVG 1.1//EN"
 "http://www.w3.org/Graphics/SVG/1.1/DTD/svg11.dtd">
<!-- Generated by graphviz version 2.43.0 (0)
 -->
<!-- Title: regalloc Pages: 1 -->
<svg width="308pt" height="451pt"
 viewBox="0.00 0.00 307.89 451.00" xmlns="http://www.w3.org/2000/svg" xmlns:xlink="http://www.w3.org/1999/xlink">
<g id="graph0" class="graph" transform="scale(1 1) rotate(0) translate(4 447)">
<title>regalloc</title>
<polygon fill="white" stroke="transparent" points="-4,4 -4,-447 303.89,-447 303.89,4 -4,4"/>
<!-- init1 -->
<g id="node1" class="node">
<title>init1</title>
<polygon fill="orange" stroke="black" points="75.39,-443 48.39,-425 75.39,-407 102.39,-425 75.39,-443"/>
</g>
<!-- alloc -->
<g id="node3" class="node">
<title>alloc</title>
<ellipse fill="none" stroke="black" cx="75.39" cy="-338" rx="75.29" ry="18"/>
<text text-anchor="middle" x="75.39" y="-334.3" font-family="Times,serif" font-size="14.00">q_reg_alloc(5)</text>
</g>
<!-- init1&#45;&gt;alloc -->
<g id="edge1" class="edge">
<title>init1&#45;&gt;alloc</title>
<path fill="none" stroke="grey" d="M75.39,-406.8C75.39,-395.16 75.39,-379.55 75.39,-366.24"/>
<polygon fill="grey" stroke="grey" points="78.89,-366.18 75.39,-356.18 71.89,-366.18 78.89,-366.18"/>
</g>
<!-- fin1 -->
<g id="node2" class="node">
<title>fin1</title>
<polygon fill="orangered" stroke="black" points="75.39,-36 48.39,-18 75.39,0 102.39,-18 75.39,-36"/>
</g>
<!-- op1 -->
<g id="node4" class="node">
<title>op1</title>
<polygon fill="none" stroke="black" points="102.39,-269 48.39,-269 48.39,-233 102.39,-233 102.39,-269"/>
</g>
<!-- alloc&#45;&gt;op1 -->
<g id="edge2" class="edge">
<title>alloc&#45;&gt;op1</title>
<path fill="none" stroke="black" d="M75.39,-319.8C75.39,-308.16 75.39,-292.55 75.39,-279.24"/>
<polygon fill="black" stroke="black" points="78.89,-279.18 75.39,-269.18 71.89,-279.18 78.89,-279.18"/>
</g>
<!-- f -->
<g id="node5" class="node">
<title>f</title>
<ellipse fill="none" stroke="black" cx="75.39" cy="-164" rx="27" ry="18"/>
<text text-anchor="middle" x="75.39" y="-160.3" font-family="Times,serif" font-size="14.00" fill="#8b4500">(f)</text>
</g>
<!-- op1&#45;&gt;f -->
<g id="edge3" class="edge">
<title>op1&#45;&gt;f</title>
<path fill="none" stroke="black" d="M75.39,-232.8C75.39,-221.16 75.39,-205.55 75.39,-192.24"/>
<polygon fill="black" stroke="black" points="78.89,-192.18 75.39,-182.18 71.89,-192.18 78.89,-192.18"/>
</g>
<!-- op2 -->
<g id="node6" class="node">
<title>op2</title>
<polygon fill="none" stroke="black" points="102.39,-109 48.39,-109 48.39,-73 102.39,-73 102.39,-109"/>
</g>
<!-- f&#45;&gt;op2 -->
<g id="edge4" class="edge">
<title>f&#45;&gt;op2</title>
<path fill="none" stroke="black" d="M75.39,-145.81C75.39,-137.79 75.39,-128.05 75.39,-119.07"/>
<polygon fill="black" stroke="black" points="78.89,-119.03 75.39,-109.03 71.89,-119.03 78.89,-119.03"/>
</g>
<!-- op2&#45;&gt;fin1 -->
<g id="edge5" class="edge">
<title>op2&#45;&gt;fin1</title>
<path fill="none" stroke="black" d="M75.39,-72.81C75.39,-64.79 75.39,-55.05 75.39,-46.07"/>
<polygon fill="black" stroke="black" points="78.89,-46.03 75.39,-36.03 71.89,-46.03 78.89,-46.03"/>
</g>
<!-- init2 -->
<g id="node7" class="node">
<title>init2</title>
<polygon fill="orange" stroke="black" points="228.39,-443 201.39,-425 228.39,-407 255.39,-425 228.39,-443"/>
</g>
<!-- access -->
<g id="node9" class="node">
<title>access</title>
<polygon fill="none" stroke="black" points="231.89,-356 168.89,-356 168.89,-320 231.89,-320 231.89,-356"/>
<text text-anchor="middle" x="200.39" y="-334.3" font-family="Times,serif" font-size="14.00">access</text>
</g>
<!-- init2&#45;&gt;access -->
<g id="edge6" class="edge">
<title>init2&#45;&gt;access</title>
<path fill="none" stroke="black" d="M219.22,-413.08C214.25,-406.52 208.5,-397.77 205.39,-389 202.86,-381.85 201.47,-373.78 200.74,-366.25"/>
<polygon fill="black" stroke="black" points="204.22,-365.86 200.1,-356.11 197.24,-366.31 204.22,-365.86"/>
<text text-anchor="middle" x="207.89" y="-377.8" font-family="Times,serif" font-size="14.00">i</text>
</g>
<!-- init2&#45;&gt;access -->
<g id="edge7" class="edge">
<title>init2&#45;&gt;access</title>
<path fill="none" stroke="black" d="M223.77,-409.96C219.83,-398.01 214.06,-380.5 209.24,-365.86"/>
<polygon fill="black" stroke="black" points="212.54,-364.69 206.09,-356.29 205.89,-366.88 212.54,-364.69"/>
<text text-anchor="middle" x="220.89" y="-377.8" font-family="Times,serif" font-size="14.00">R</text>
</g>
<!-- access2 -->
<g id="node10" class="node">
<title>access2</title>
<polygon fill="none" stroke="black" points="299.89,-269 236.89,-269 236.89,-233 299.89,-233 299.89,-269"/>
<text text-anchor="middle" x="268.39" y="-247.3" font-family="Times,serif" font-size="14.00">access</text>
</g>
<!-- init2&#45;&gt;access2 -->
<g id="edge8" class="edge">
<title>init2&#45;&gt;access2</title>
<path fill="none" stroke="black" d="M231.87,-409.04C238.62,-380.03 253.56,-315.76 262.1,-279.07"/>
<polygon fill="black" stroke="black" points="265.57,-279.6 264.42,-269.07 258.75,-278.02 265.57,-279.6"/>
<text text-anchor="middle" x="253.89" y="-334.3" font-family="Times,serif" font-size="14.00">j</text>
</g>
<!-- fin2 -->
<g id="node8" class="node">
<title>fin2</title>
<polygon fill="orangered" stroke="black" points="225.39,-182 198.39,-164 225.39,-146 252.39,-164 225.39,-182"/>
</g>
<!-- access&#45;&gt;fin2 -->
<g id="edge9" class="edge">
<title>access&#45;&gt;fin2</title>
<path fill="none" stroke="blue" d="M199.13,-319.91C197.97,-299.18 197.12,-263.24 202.39,-233 205.1,-217.5 210.73,-200.75 215.74,-187.75"/>
<polygon fill="blue" stroke="blue" points="219.09,-188.81 219.56,-178.23 212.59,-186.21 219.09,-188.81"/>
<text text-anchor="middle" x="215.39" y="-247.3" font-family="Times,serif" font-size="14.00">R[i]</text>
</g>
<!-- access&#45;&gt;access2 -->
<g id="edge10" class="edge">
<title>access&#45;&gt;access2</title>
<path fill="none" stroke="black" d="M214.15,-319.8C223.92,-307.59 237.2,-290.99 248.17,-277.28"/>
<polygon fill="black" stroke="black" points="251.14,-279.17 254.65,-269.18 245.67,-274.8 251.14,-279.17"/>
<text text-anchor="middle" x="243.89" y="-290.8" font-family="Times,serif" font-size="14.00">R</text>
</g>
<!-- access2&#45;&gt;fin2 -->
<g id="edge11" class="edge">
<title>access2&#45;&gt;fin2</title>
<path fill="none" stroke="blue" d="M240.8,-232.82C235.02,-227.83 229.68,-221.84 226.39,-215 222.78,-207.49 221.74,-198.59 221.85,-190.39"/>
<polygon fill="blue" stroke="blue" points="225.35,-190.4 222.53,-180.19 218.37,-189.94 225.35,-190.4"/>
<text text-anchor="middle" x="239.39" y="-203.8" font-family="Times,serif" font-size="14.00">R[j]</text>
</g>
<!-- access2&#45;&gt;fin2 -->
<g id="edge12" class="edge">
<title>access2&#45;&gt;fin2</title>
<path fill="none" stroke="black" d="M264.46,-232.75C261.82,-222.83 257.82,-210.33 252.39,-200 249.42,-194.34 245.53,-188.66 241.62,-183.57"/>
<polygon fill="black" stroke="black" points="244.23,-181.23 235.21,-175.67 238.8,-185.64 244.23,-181.23"/>
<text text-anchor="middle" x="263.89" y="-203.8" font-family="Times,serif" font-size="14.00">R</text>
</g>
</g>
</svg>
