<?xml version="1.0" encoding="UTF-8" standalone="no"?>
<!DOCTYPE svg PUBLIC "-//W3C//DTD SVG 1.1//EN"
 "http://www.w3.org/Graphics/SVG/1.1/DTD/svg11.dtd">
<!-- Generated by graphviz version 2.43.0 (0)
 -->
<!-- Title: write2 Pages: 1 -->
<svg width="266pt" height="332pt"
 viewBox="0.00 0.00 266.00 332.00" xmlns="http://www.w3.org/2000/svg" xmlns:xlink="http://www.w3.org/1999/xlink">
<g id="graph0" class="graph" transform="scale(1 1) rotate(0) translate(4 328)">
<title>write2</title>
<polygon fill="white" stroke="transparent" points="-4,4 -4,-328 262,-328 262,4 -4,4"/>
<!-- init -->
<g id="node1" class="node">
<title>init</title>
<polygon fill="orange" stroke="black" points="130,-180 82.41,-162 130,-144 177.59,-162 130,-180"/>
<text text-anchor="middle" x="130" y="-158.3" font-family="Times,serif" font-size="14.00">main</text>
</g>
<!-- write0 -->
<g id="node11" class="node">
<title>write0</title>
<ellipse fill="none" stroke="black" cx="163" cy="-90" rx="27" ry="18"/>
<text text-anchor="middle" x="163" y="-86.3" font-family="Times,serif" font-size="14.00" fill="#8b4500">(w)</text>
</g>
<!-- init&#45;&gt;write0 -->
<g id="edge9" class="edge">
<title>init&#45;&gt;write0</title>
<path fill="none" stroke="grey" d="M136.84,-146.5C140.9,-137.88 146.17,-126.7 150.91,-116.63"/>
<polygon fill="grey" stroke="grey" points="154.15,-117.99 155.25,-107.45 147.82,-115 154.15,-117.99"/>
</g>
<!-- write1 -->
<g id="node12" class="node">
<title>write1</title>
<ellipse fill="none" stroke="black" cx="91" cy="-90" rx="27" ry="18"/>
<text text-anchor="middle" x="91" y="-86.3" font-family="Times,serif" font-size="14.00" fill="#8b4500">(w)</text>
</g>
<!-- init&#45;&gt;write1 -->
<g id="edge10" class="edge">
<title>init&#45;&gt;write1</title>
<path fill="none" stroke="grey" d="M122.11,-146.83C117.2,-138.03 110.75,-126.45 105,-116.12"/>
<polygon fill="grey" stroke="grey" points="107.9,-114.14 99.97,-107.1 101.78,-117.54 107.9,-114.14"/>
</g>
<!-- fin -->
<g id="node2" class="node">
<title>fin</title>
<polygon fill="orangered" stroke="black" points="127,-36 100,-18 127,0 154,-18 127,-36"/>
</g>
<!-- q0_alloc -->
<g id="node3" class="node">
<title>q0_alloc</title>
<ellipse fill="none" stroke="black" cx="224" cy="-306" rx="18" ry="18"/>
</g>
<!-- Rx_q0 -->
<g id="node5" class="node">
<title>Rx_q0</title>
<polygon fill="none" stroke="black" points="258,-252 190,-252 190,-216 258,-216 258,-252"/>
<text text-anchor="middle" x="224" y="-230.3" font-family="Times,serif" font-size="14.00">Rx(1/4)</text>
</g>
<!-- q0_alloc&#45;&gt;Rx_q0 -->
<g id="edge1" class="edge">
<title>q0_alloc&#45;&gt;Rx_q0</title>
<path fill="none" stroke="blue" d="M224,-287.7C224,-279.98 224,-270.71 224,-262.11"/>
<polygon fill="blue" stroke="blue" points="227.5,-262.1 224,-252.1 220.5,-262.1 227.5,-262.1"/>
</g>
<!-- q1_alloc -->
<g id="node4" class="node">
<title>q1_alloc</title>
<ellipse fill="none" stroke="black" cx="34" cy="-306" rx="18" ry="18"/>
</g>
<!-- Rx_q1 -->
<g id="node6" class="node">
<title>Rx_q1</title>
<polygon fill="none" stroke="black" points="68,-252 0,-252 0,-216 68,-216 68,-252"/>
<text text-anchor="middle" x="34" y="-230.3" font-family="Times,serif" font-size="14.00">Rx(1/2)</text>
</g>
<!-- q1_alloc&#45;&gt;Rx_q1 -->
<g id="edge2" class="edge">
<title>q1_alloc&#45;&gt;Rx_q1</title>
<path fill="none" stroke="blue" d="M34,-287.7C34,-279.98 34,-270.71 34,-262.11"/>
<polygon fill="blue" stroke="blue" points="37.5,-262.1 34,-252.1 30.5,-262.1 37.5,-262.1"/>
</g>
<!-- M_q0 -->
<g id="node7" class="node">
<title>M_q0</title>
<polygon fill="none" stroke="black" points="251,-180 197,-180 197,-144 251,-144 251,-180"/>
<text text-anchor="middle" x="224" y="-158.3" font-family="Times,serif" font-size="14.00">M</text>
</g>
<!-- Rx_q0&#45;&gt;M_q0 -->
<g id="edge3" class="edge">
<title>Rx_q0&#45;&gt;M_q0</title>
<path fill="none" stroke="blue" d="M224,-215.7C224,-207.98 224,-198.71 224,-190.11"/>
<polygon fill="blue" stroke="blue" points="227.5,-190.1 224,-180.1 220.5,-190.1 227.5,-190.1"/>
</g>
<!-- M_q1 -->
<g id="node8" class="node">
<title>M_q1</title>
<polygon fill="none" stroke="black" points="61,-180 7,-180 7,-144 61,-144 61,-180"/>
<text text-anchor="middle" x="34" y="-158.3" font-family="Times,serif" font-size="14.00">M</text>
</g>
<!-- Rx_q1&#45;&gt;M_q1 -->
<g id="edge4" class="edge">
<title>Rx_q1&#45;&gt;M_q1</title>
<path fill="none" stroke="blue" d="M34,-215.7C34,-207.98 34,-198.71 34,-190.11"/>
<polygon fill="blue" stroke="blue" points="37.5,-190.1 34,-180.1 30.5,-190.1 37.5,-190.1"/>
</g>
<!-- q0_free -->
<g id="node9" class="node">
<title>q0_free</title>
<ellipse fill="none" stroke="black" cx="226" cy="-90" rx="18" ry="18"/>
</g>
<!-- M_q0&#45;&gt;q0_free -->
<g id="edge5" class="edge">
<title>M_q0&#45;&gt;q0_free</title>
<path fill="none" stroke="blue" d="M224.49,-143.7C224.71,-135.98 224.98,-126.71 225.23,-118.11"/>
<polygon fill="blue" stroke="blue" points="228.72,-118.2 225.51,-108.1 221.73,-118 228.72,-118.2"/>
</g>
<!-- M_q0&#45;&gt;write0 -->
<g id="edge7" class="edge">
<title>M_q0&#45;&gt;write0</title>
<path fill="none" stroke="black" d="M208.92,-143.7C201.09,-134.71 191.43,-123.62 182.98,-113.93"/>
<polygon fill="black" stroke="black" points="185.46,-111.44 176.25,-106.2 180.18,-116.04 185.46,-111.44"/>
</g>
<!-- q1_free -->
<g id="node10" class="node">
<title>q1_free</title>
<ellipse fill="none" stroke="black" cx="28" cy="-90" rx="18" ry="18"/>
</g>
<!-- M_q1&#45;&gt;q1_free -->
<g id="edge6" class="edge">
<title>M_q1&#45;&gt;q1_free</title>
<path fill="none" stroke="blue" d="M32.52,-143.7C31.86,-135.98 31.06,-126.71 30.32,-118.11"/>
<polygon fill="blue" stroke="blue" points="33.81,-117.77 29.47,-108.1 26.83,-118.37 33.81,-117.77"/>
</g>
<!-- M_q1&#45;&gt;write1 -->
<g id="edge8" class="edge">
<title>M_q1&#45;&gt;write1</title>
<path fill="none" stroke="black" d="M48.09,-143.7C55.33,-134.8 64.26,-123.84 72.09,-114.22"/>
<polygon fill="black" stroke="black" points="75.02,-116.17 78.62,-106.2 69.59,-111.75 75.02,-116.17"/>
</g>
<!-- write0&#45;&gt;fin -->
<g id="edge11" class="edge">
<title>write0&#45;&gt;fin</title>
<path fill="none" stroke="grey" d="M154.65,-72.76C149.8,-63.34 143.63,-51.33 138.34,-41.06"/>
<polygon fill="grey" stroke="grey" points="141.31,-39.17 133.62,-31.88 135.08,-42.37 141.31,-39.17"/>
</g>
<!-- write1&#45;&gt;fin -->
<g id="edge12" class="edge">
<title>write1&#45;&gt;fin</title>
<path fill="none" stroke="grey" d="M99.35,-72.76C104.2,-63.34 110.37,-51.33 115.66,-41.06"/>
<polygon fill="grey" stroke="grey" points="118.92,-42.37 120.38,-31.88 112.69,-39.17 118.92,-42.37"/>
</g>
</g>
</svg>
